<?xml version="1.0" encoding="utf-8"?>
<!-- Generator: Adobe Illustrator 27.8.1, SVG Export Plug-In . SVG Version: 6.00 Build 0)  -->
<svg version="1.1" id="Layer_1" xmlns="http://www.w3.org/2000/svg" xmlns:xlink="http://www.w3.org/1999/xlink" x="0px" y="0px"
	 viewBox="0 0 512 512" style="enable-background:new 0 0 512 512;" xml:space="preserve">
<style type="text/css">
	.st0{display:none;fill:#151515;}
	.st1{clip-path:url(#SVGID_00000007412896012214062210000012711589887981462913_);fill:#F0F0F0;}
	.st2{fill:#151515;}
	.st3{clip-path:url(#SVGID_00000108277497568851010120000013900844320106573982_);enable-background:new    ;}
	.st4{fill:#F0F0F0;}
	.st5{clip-path:url(#SVGID_00000076587747410364019780000009741851541397660846_);enable-background:new    ;}
	.st6{clip-path:url(#SVGID_00000003827744325477393420000003753553079644983487_);fill:#F0F0F0;}
	.st7{clip-path:url(#SVGID_00000121262442750147160660000000453136009009396367_);fill:#F0F0F0;}
	.st8{clip-path:url(#SVGID_00000103252178327762374270000000858376511701773440_);fill:#F0F0F0;}
	.st9{clip-path:url(#SVGID_00000126307160587631591770000014467334384216564899_);fill:#F0F0F0;}
	.st10{enable-background:new    ;}
	.st11{clip-path:url(#SVGID_00000168810051935275866580000001030807771254250682_);fill:#151515;}
	.st12{clip-path:url(#SVGID_00000092416061485150540630000010129118991784690835_);fill:#151515;}
</style>
<rect class="st0" width="512" height="512"/>
<g>
	<g>
		<defs>
			<path id="SVGID_1_" d="M289.9,243.37l-0.31,25.24c-0.03,2.26-1.51,4.51-4.45,6.2c-5.9,3.41-15.44,3.31-21.31-0.21
				c-2.95-1.77-4.41-4.07-4.38-6.36l0.31-25.24c-0.03,2.28,1.43,4.59,4.38,6.36c5.86,3.53,15.41,3.62,21.31,0.21
				C288.39,247.87,289.87,245.63,289.9,243.37z"/>
		</defs>
		<use xlink:href="#SVGID_1_"  style="overflow:visible;fill:#F0F0F0;"/>
		<clipPath id="SVGID_00000056410340214818301710000009671382973735075712_">
			<use xlink:href="#SVGID_1_"  style="overflow:visible;"/>
		</clipPath>
		<path style="clip-path:url(#SVGID_00000056410340214818301710000009671382973735075712_);fill:#F0F0F0;" d="M289.89,243.56
			c-0.02,0.3-0.06,0.61-0.12,0.91c-0.07,0.3-0.16,0.6-0.28,0.89c-0.12,0.31-0.28,0.61-0.46,0.91c-0.2,0.33-0.43,0.65-0.69,0.96
			c-0.33,0.39-0.71,0.77-1.14,1.13c-0.51,0.43-1.09,0.83-1.75,1.21c-1.56,0.9-3.37,1.56-5.31,1.97c-0.71,0.15-1.43,0.27-2.16,0.35
			c-0.59,0.07-1.18,0.12-1.78,0.14c-0.54,0.02-1.08,0.03-1.63,0.02c-0.52-0.01-1.03-0.03-1.54-0.07c-0.51-0.04-1.02-0.1-1.52-0.17
			c-0.52-0.07-1.03-0.16-1.54-0.27c-0.55-0.11-1.1-0.25-1.63-0.4c-0.64-0.19-1.27-0.4-1.87-0.64c-0.83-0.33-1.61-0.72-2.33-1.15
			c-2.95-1.77-4.41-4.07-4.38-6.36l-0.31,25.24c-0.03,2.28,1.43,4.59,4.38,6.36c0.73,0.44,1.51,0.82,2.33,1.15
			c0.6,0.24,1.23,0.46,1.87,0.64c0.53,0.15,1.08,0.29,1.63,0.4c0.51,0.11,1.02,0.19,1.54,0.27c0.5,0.07,1.01,0.13,1.52,0.17
			c0.51,0.04,1.03,0.06,1.54,0.07c0.54,0.01,1.08,0,1.63-0.02c0.6-0.03,1.19-0.08,1.78-0.14c0.73-0.09,1.45-0.2,2.16-0.35
			c1.93-0.41,3.75-1.07,5.31-1.97c0.65-0.38,1.24-0.78,1.75-1.21c0.43-0.36,0.81-0.74,1.14-1.13c0.26-0.31,0.5-0.63,0.69-0.96
			c0.18-0.3,0.33-0.6,0.46-0.91c0.12-0.29,0.21-0.59,0.28-0.89c0.07-0.3,0.11-0.6,0.12-0.91c0-0.07,0.01-0.13,0.01-0.2l0.31-25.24
			C289.9,243.43,289.9,243.5,289.89,243.56z"/>
	</g>
	<g>
		<path class="st2" d="M264.21,236.8c5.91-3.41,15.45-3.32,21.31,0.21s5.83,9.15-0.07,12.56c-5.9,3.41-15.44,3.31-21.31-0.21
			C258.28,245.83,258.31,240.21,264.21,236.8z"/>
	</g>
	<g>
		<defs>
			<path id="SVGID_00000057870934692466570460000001496278638318943156_" d="M431.16,199.3l0.31-25.24
				c-0.01,0.63,0.08,1.25,0.27,1.87l-0.31,25.24C431.24,200.55,431.15,199.92,431.16,199.3z"/>
		</defs>
		<use xlink:href="#SVGID_00000057870934692466570460000001496278638318943156_"  style="overflow:visible;fill:#F0F0F0;"/>
		<clipPath id="SVGID_00000023979591075375150180000002643060232941228182_">
			<use xlink:href="#SVGID_00000057870934692466570460000001496278638318943156_"  style="overflow:visible;"/>
		</clipPath>
		<g style="clip-path:url(#SVGID_00000023979591075375150180000002643060232941228182_);enable-background:new    ;">
			<path class="st4" d="M431.74,175.93l-0.31,25.24c-0.19-0.62-0.28-1.25-0.27-1.87l0.31-25.24
				C431.46,174.69,431.55,175.31,431.74,175.93"/>
		</g>
	</g>
	<path class="st4" d="M456.27,193.19c-0.37-0.22-0.72-0.43-1.14-0.63c-0.47-0.25-0.96-0.48-1.46-0.71
		c-0.15-0.06-0.29-0.13-0.44-0.19c-0.18-0.08-0.35-0.16-0.53-0.23c-0.2-0.08-0.4-0.15-0.6-0.22c-0.17-0.06-0.33-0.13-0.5-0.18
		c-0.48-0.17-0.96-0.33-1.45-0.47c-0.06-0.02-0.11-0.04-0.17-0.05c-0.01,0-0.02-0.01-0.03-0.01c-0.52-0.15-1.06-0.28-1.59-0.41
		c-0.13-0.03-0.26-0.06-0.38-0.09c-0.13-0.03-0.26-0.06-0.39-0.09c-0.41-0.08-0.82-0.16-1.23-0.23c-0.07-0.01-0.15-0.02-0.22-0.03
		c-0.26-0.04-0.51-0.08-0.77-0.12c-0.15-0.02-0.3-0.03-0.44-0.05c-0.41-0.05-0.81-0.1-1.22-0.13c-0.17-0.02-0.34-0.04-0.51-0.06
		c-0.12-0.01-0.23-0.01-0.35-0.02c-0.42-0.03-0.84-0.05-1.25-0.06c-0.19-0.01-0.39-0.02-0.58-0.03c-0.12,0-0.25,0-0.37,0
		c-0.11,0-0.22,0-0.33,0c-0.52,0-1.04,0.01-1.56,0.03c-0.04,0-0.08,0.01-0.13,0.01c-0.09,0-0.18,0.01-0.27,0.02
		c-0.5,0.03-1,0.07-1.5,0.12c-0.11,0.01-0.23,0.02-0.34,0.03c-0.07,0.01-0.14,0.01-0.21,0.02c-0.51,0.06-1.01,0.13-1.51,0.21
		c-0.07,0.01-0.14,0.03-0.22,0.04c-0.4,0.07-0.8,0.14-1.19,0.22c-0.07,0.02-0.14,0.04-0.22,0.05c-0.36,0.08-0.71,0.17-1.06,0.26
		c-0.26,0.07-0.52,0.13-0.78,0.21c-0.36,0.11-0.71,0.23-1.06,0.35c-0.23,0.08-0.47,0.15-0.7,0.24c-0.38,0.14-0.75,0.3-1.11,0.46
		c-0.18,0.08-0.38,0.15-0.56,0.24c-0.54,0.25-1.06,0.52-1.57,0.81c-0.4,0.23-0.77,0.47-1.12,0.71c-0.05,0.03-0.1,0.07-0.15,0.1
		c-0.33,0.23-0.65,0.47-0.94,0.72c-0.03,0.02-0.06,0.04-0.09,0.07c-0.03,0.03-0.06,0.05-0.09,0.08c-0.25,0.21-0.49,0.43-0.72,0.65
		c0,0-0.01,0.01-0.01,0.01c-0.22,0.22-0.42,0.44-0.62,0.66c-0.02,0.03-0.05,0.06-0.08,0.09c-0.03,0.04-0.05,0.07-0.08,0.11
		c-0.11,0.13-0.21,0.27-0.31,0.4c-0.05,0.07-0.1,0.13-0.15,0.2c-0.12,0.17-0.23,0.34-0.34,0.52c-0.02,0.03-0.04,0.05-0.05,0.08
		c0,0,0,0.01-0.01,0.01c-0.12,0.19-0.22,0.38-0.32,0.58c-0.03,0.05-0.05,0.1-0.07,0.15c-0.07,0.14-0.14,0.29-0.2,0.43
		c-0.01,0.02-0.01,0.03-0.02,0.05c-0.03,0.06-0.04,0.13-0.07,0.19c-0.04,0.12-0.09,0.23-0.13,0.35c-0.03,0.08-0.05,0.17-0.07,0.25
		c-0.03,0.11-0.06,0.23-0.09,0.34c-0.01,0.03-0.02,0.06-0.02,0.09c-0.01,0.05-0.02,0.11-0.03,0.17c-0.02,0.12-0.04,0.23-0.06,0.35
		c-0.01,0.09-0.02,0.17-0.03,0.26c-0.01,0.12-0.02,0.23-0.03,0.35c0,0.05-0.01,0.09-0.01,0.14c0,0.09-0.01,0.18-0.01,0.27
		l-0.31,25.24c0-0.14,0.01-0.27,0.02-0.41c0.01-0.12,0.02-0.23,0.03-0.35c0.01-0.09,0.02-0.17,0.03-0.26
		c0.02-0.12,0.04-0.23,0.06-0.35c0.02-0.09,0.03-0.17,0.05-0.26c0.03-0.11,0.06-0.23,0.09-0.34c0.02-0.08,0.05-0.17,0.07-0.25
		c0.04-0.12,0.08-0.23,0.13-0.35c0.03-0.08,0.06-0.16,0.09-0.23c0.06-0.15,0.13-0.29,0.2-0.43c0.02-0.05,0.05-0.1,0.07-0.15
		c0.1-0.19,0.2-0.39,0.32-0.58c0.02-0.03,0.04-0.06,0.06-0.09c0.11-0.17,0.22-0.35,0.34-0.52c0.05-0.07,0.1-0.13,0.15-0.2
		c0.1-0.13,0.2-0.27,0.31-0.4c0.05-0.06,0.11-0.13,0.16-0.19c0.19-0.22,0.4-0.45,0.62-0.66c0,0,0.01-0.01,0.01-0.01
		c0.22-0.22,0.47-0.44,0.72-0.65c0.06-0.05,0.12-0.1,0.18-0.15c0.3-0.24,0.61-0.48,0.94-0.72c0.05-0.03,0.1-0.07,0.15-0.1
		c0.36-0.24,0.73-0.48,1.12-0.71c0.5-0.29,1.03-0.56,1.57-0.81c0.18-0.08,0.37-0.16,0.56-0.24c0.37-0.16,0.73-0.32,1.12-0.46
		c0.23-0.09,0.47-0.16,0.7-0.24c0.35-0.12,0.7-0.24,1.06-0.35c0.26-0.08,0.52-0.14,0.78-0.21c0.35-0.09,0.7-0.18,1.06-0.26
		c0.46-0.1,0.93-0.2,1.41-0.28c0.07-0.01,0.14-0.03,0.21-0.04c0.57-0.09,1.15-0.17,1.73-0.24c0.11-0.01,0.23-0.02,0.34-0.03
		c0.5-0.05,1-0.09,1.5-0.12c0.09-0.01,0.18-0.01,0.27-0.02c0.56-0.03,1.12-0.04,1.69-0.04c0.11,0,0.22,0,0.33,0
		c0.32,0,0.63,0.02,0.95,0.03c0.42,0.01,0.84,0.03,1.25,0.06c0.28,0.02,0.57,0.05,0.85,0.07c0.41,0.04,0.81,0.08,1.22,0.13
		c0.41,0.05,0.81,0.1,1.22,0.17c0.07,0.01,0.15,0.02,0.22,0.03c0.55,0.09,1.09,0.2,1.63,0.32c0.13,0.03,0.26,0.06,0.38,0.09
		c0.55,0.13,1.09,0.27,1.63,0.42c0.05,0.02,0.11,0.04,0.16,0.05c0.49,0.15,0.98,0.3,1.46,0.47c0.17,0.06,0.33,0.12,0.5,0.18
		c0.38,0.14,0.76,0.29,1.13,0.45c0.15,0.06,0.29,0.12,0.44,0.19c0.5,0.22,0.99,0.46,1.46,0.71c0.42,0.19,0.77,0.4,1.14,0.63
		c4.34,2.61,6.5,5.97,6.46,9.24l0.31-25.24C462.77,199.16,460.61,195.8,456.27,193.19z"/>
	<g>
		<defs>
			<path id="SVGID_00000047027765558035508050000017992696530637025412_" d="M489.36,218.71l-0.31,25.24
				c0.04-3.05-1.68-6.12-5.16-8.63l0.31-25.24C487.68,212.59,489.4,215.66,489.36,218.71z"/>
		</defs>
		<use xlink:href="#SVGID_00000047027765558035508050000017992696530637025412_"  style="overflow:visible;fill:#F0F0F0;"/>
		<clipPath id="SVGID_00000124860302459754536420000010413135954848282253_">
			<use xlink:href="#SVGID_00000047027765558035508050000017992696530637025412_"  style="overflow:visible;"/>
		</clipPath>
		<g style="clip-path:url(#SVGID_00000124860302459754536420000010413135954848282253_);enable-background:new    ;">
			<path class="st4" d="M489.36,218.71l-0.31,25.24c0.04-3.05-1.68-6.12-5.16-8.63l0.31-25.24
				C487.68,212.59,489.4,215.66,489.36,218.71"/>
		</g>
	</g>
	<g>
		<defs>
			<path id="SVGID_00000056391966100408830010000015421784607115607180_" d="M396.99,225.26l0.31-25.24
				c-0.09,6.89,4.44,13.94,13.53,19.41c3.67,2.2,7.78,3.99,12.17,5.3c8.64,2.65,18.28,3.59,27.48,2.79
				c8.48-0.73,16.48-2.94,22.95-6.68c5.29-3.05,8.91-6.77,10.77-10.76l-0.31,25.24c-1.86,3.99-5.48,7.7-10.77,10.76
				c-6.47,3.74-14.47,5.95-22.95,6.68c-9.2,0.8-18.84-0.14-27.48-2.79c-4.39-1.31-8.51-3.1-12.17-5.3
				C401.43,239.2,396.9,232.15,396.99,225.26z"/>
		</defs>
		<use xlink:href="#SVGID_00000056391966100408830010000015421784607115607180_"  style="overflow:visible;fill:#F0F0F0;"/>
		<clipPath id="SVGID_00000095310323479584158780000010954022571967738796_">
			<use xlink:href="#SVGID_00000056391966100408830010000015421784607115607180_"  style="overflow:visible;"/>
		</clipPath>
		<path style="clip-path:url(#SVGID_00000095310323479584158780000010954022571967738796_);fill:#F0F0F0;" d="M483.3,211.77
			c-0.54,0.9-1.18,1.78-1.9,2.63c-0.9,1.06-1.93,2.09-3.11,3.07c-1.42,1.19-3.04,2.32-4.86,3.37c-4.34,2.51-9.37,4.32-14.77,5.47
			c-1.97,0.42-3.99,0.75-6.04,0.99c-0.71,0.08-1.43,0.16-2.14,0.22c-1.01,0.09-2.02,0.15-3.03,0.2c-1.57,0.07-3.14,0.09-4.72,0.06
			c-1.52-0.03-3.04-0.1-4.55-0.22c-1.52-0.12-3.03-0.28-4.52-0.49c-1.56-0.22-3.12-0.49-4.65-0.81c-1.68-0.35-3.35-0.76-4.97-1.23
			c-0.34-0.1-0.69-0.2-1.03-0.31c-1.66-0.5-3.28-1.06-4.86-1.69c-2.58-1.03-5.04-2.24-7.32-3.61c-9.09-5.47-13.62-12.52-13.53-19.41
			l-0.31,25.24c-0.09,6.89,4.44,13.94,13.53,19.41c2.28,1.37,4.73,2.58,7.32,3.61c1.57,0.63,3.19,1.19,4.86,1.69
			c0.34,0.1,0.68,0.21,1.03,0.31c1.63,0.47,3.29,0.88,4.97,1.23c1.53,0.32,3.08,0.59,4.65,0.81c1.5,0.21,3.01,0.37,4.52,0.49
			c1.51,0.12,3.03,0.19,4.55,0.22c1.58,0.03,3.15,0.01,4.72-0.06c1.02-0.05,2.03-0.11,3.03-0.2c0.72-0.06,1.43-0.13,2.14-0.22
			c2.05-0.24,4.07-0.57,6.04-0.99c5.4-1.15,10.43-2.97,14.77-5.47c1.82-1.05,3.44-2.18,4.86-3.37c1.17-0.98,2.21-2.01,3.11-3.07
			c0.72-0.86,1.36-1.74,1.9-2.63c0.34-0.55,0.64-1.12,0.9-1.68l0.31-25.24C483.94,210.65,483.64,211.21,483.3,211.77z"/>
	</g>
	<g>
		<defs>
			<path id="SVGID_00000078042976994738215300000007225992801180175251_" d="M512,218.98l-0.31,25.24
				c-0.08,6.78-4.54,13.51-13.35,18.6c-10.93,6.31-26.03,8.61-40.11,6.98l0.31-25.24c14.09,1.63,29.18-0.66,40.11-6.98
				C507.46,232.49,511.91,225.76,512,218.98z"/>
		</defs>
		<use xlink:href="#SVGID_00000078042976994738215300000007225992801180175251_"  style="overflow:visible;fill:#F0F0F0;"/>
		<clipPath id="SVGID_00000076566188244618098820000013026513445666624142_">
			<use xlink:href="#SVGID_00000078042976994738215300000007225992801180175251_"  style="overflow:visible;"/>
		</clipPath>
		<path style="clip-path:url(#SVGID_00000076566188244618098820000013026513445666624142_);fill:#F0F0F0;" d="M511.98,219.57
			c-0.05,0.91-0.17,1.82-0.37,2.72c-0.2,0.9-0.48,1.79-0.84,2.67c-0.37,0.92-0.83,1.83-1.37,2.73c-0.59,0.98-1.29,1.94-2.08,2.88
			c-0.99,1.16-2.13,2.29-3.42,3.38c-1.53,1.28-3.28,2.5-5.24,3.63c-4.69,2.71-10.14,4.67-15.95,5.91c-2.11,0.45-4.27,0.8-6.46,1.06
			c-1.77,0.21-3.56,0.35-5.36,0.43c-1.62,0.07-3.25,0.1-4.88,0.07c-1.55-0.03-3.11-0.1-4.65-0.22c-0.94-0.07-1.88-0.16-2.81-0.27
			l-0.31,25.24c0.93,0.11,1.87,0.2,2.81,0.27c1.55,0.12,3.1,0.2,4.65,0.22c1.63,0.03,3.26,0.01,4.88-0.07
			c1.8-0.08,3.59-0.23,5.36-0.43c2.19-0.26,4.35-0.61,6.46-1.06c5.81-1.24,11.26-3.21,15.95-5.91c1.96-1.13,3.71-2.35,5.24-3.63
			c1.3-1.08,2.44-2.21,3.42-3.38c0.79-0.94,1.49-1.9,2.08-2.88c0.54-0.9,1-1.81,1.37-2.73c0.36-0.88,0.64-1.78,0.84-2.67
			c0.2-0.9,0.33-1.81,0.37-2.72c0.01-0.2,0.02-0.39,0.02-0.59l0.31-25.24C512,219.18,511.99,219.37,511.98,219.57z"/>
	</g>
	<g>
		<path class="st2" d="M436.49,167.06l3.95-2.28l58.41,35.12c17.61,10.59,17.51,27.44-0.21,37.67c-10.93,6.31-26.03,8.61-40.11,6.98
			l1.86-13.4c7.64,1.38,16.28,0.34,22.32-3.15c8.34-4.81,8.83-12.61,1.48-17.91c-1.86,3.99-5.48,7.7-10.77,10.76
			c-6.47,3.74-14.47,5.95-22.95,6.68c-9.2,0.8-18.84-0.14-27.48-2.79c-4.39-1.31-8.51-3.1-12.17-5.3
			c-17.6-10.58-18.1-27.11-1.12-36.9c6.21-3.59,13.91-5.77,22.03-6.59C430.78,172.79,432.36,169.44,436.49,167.06z M462.09,205.36
			c1.78-4.1-0.17-8.76-5.82-12.16c-0.37-0.22-0.72-0.43-1.14-0.63c-8.42-4.46-21.02-4.54-28.8-0.05c-7.3,4.21-7.84,11.01-1.77,16.01
			c0.68,0.57,1.46,1.13,2.3,1.64c5.1,3.07,11.99,4.37,18.44,3.91c4.24-0.29,8.29-1.38,11.5-3.23
			C459.48,209.3,461.26,207.4,462.09,205.36"/>
	</g>
	<path class="st4" d="M413.44,252.5l-29.34-17.64c-0.44-0.26-0.89-0.51-1.36-0.74c-0.16-0.08-0.33-0.14-0.49-0.22
		c-0.32-0.15-0.63-0.3-0.96-0.43c-0.02-0.01-0.03-0.02-0.05-0.02c-0.42-0.17-0.85-0.32-1.28-0.47c-0.12-0.04-0.25-0.08-0.37-0.12
		c-0.21-0.07-0.41-0.14-0.62-0.2c-0.17-0.05-0.33-0.09-0.5-0.13c-0.09-0.02-0.18-0.05-0.27-0.07c-0.39-0.1-0.79-0.2-1.19-0.28
		c-0.05-0.01-0.09-0.01-0.14-0.02c-0.43-0.09-0.87-0.16-1.31-0.23c-0.13-0.02-0.25-0.05-0.38-0.07c-0.02,0-0.03,0-0.05-0.01
		c-0.57-0.08-1.15-0.14-1.72-0.19c-0.01,0-0.01,0-0.02,0c-0.09-0.01-0.19-0.01-0.28-0.01c-0.48-0.03-0.96-0.06-1.43-0.07
		c-0.03,0-0.05,0-0.08,0c-0.15,0-0.31,0.01-0.46,0.01c-0.41,0-0.82,0-1.23,0.02c-0.06,0-0.11,0-0.17,0
		c-0.14,0.01-0.28,0.03-0.42,0.03c-0.43,0.03-0.85,0.06-1.27,0.1c-0.1,0.01-0.2,0.01-0.3,0.02c-0.21,0.03-0.42,0.06-0.63,0.09
		c-0.13,0.02-0.26,0.03-0.39,0.05c-0.46,0.07-0.91,0.15-1.35,0.25c-0.02,0-0.03,0.01-0.05,0.01c-0.3,0.06-0.59,0.14-0.88,0.22
		c-0.22,0.06-0.45,0.11-0.66,0.17c-0.3,0.09-0.59,0.19-0.89,0.29c-0.2,0.07-0.4,0.12-0.59,0.19c-0.32,0.12-0.62,0.25-0.93,0.39
		c-0.15,0.07-0.32,0.12-0.47,0.19c-0.45,0.21-0.89,0.43-1.31,0.68c-0.32,0.19-0.63,0.38-0.92,0.58c-0.04,0.03-0.08,0.05-0.12,0.08
		c-0.27,0.19-0.53,0.39-0.77,0.59c-0.02,0.02-0.05,0.04-0.07,0.06c-0.03,0.02-0.05,0.04-0.07,0.07c-0.2,0.17-0.4,0.35-0.58,0.53
		c0,0-0.01,0.01-0.01,0.01c-0.18,0.18-0.34,0.36-0.5,0.54c-0.02,0.02-0.04,0.05-0.06,0.07c-0.02,0.03-0.05,0.06-0.07,0.09
		c-0.09,0.11-0.17,0.21-0.25,0.32c-0.04,0.05-0.08,0.11-0.12,0.16c-0.09,0.13-0.18,0.26-0.26,0.4c-0.02,0.03-0.04,0.05-0.05,0.08
		c0,0-0.01,0.01-0.01,0.02c-0.09,0.16-0.18,0.32-0.26,0.48c-0.02,0.03-0.03,0.07-0.05,0.1c-0.06,0.13-0.12,0.25-0.17,0.38
		c0,0.01-0.01,0.02-0.02,0.03c-0.02,0.05-0.04,0.1-0.06,0.15c-0.04,0.1-0.07,0.19-0.1,0.29c-0.02,0.07-0.04,0.14-0.06,0.2
		c-0.03,0.09-0.05,0.19-0.08,0.28c-0.01,0.02-0.01,0.05-0.02,0.07c-0.01,0.05-0.02,0.09-0.02,0.14c-0.02,0.09-0.04,0.19-0.05,0.29
		c-0.01,0.07-0.02,0.14-0.03,0.21c-0.01,0.09-0.02,0.19-0.03,0.28c0,0.04-0.01,0.07-0.01,0.11c0,0.07-0.01,0.15-0.01,0.22
		l-0.31,25.24c0-0.11,0.01-0.22,0.02-0.34c0.01-0.1,0.02-0.19,0.03-0.29c0.01-0.07,0.02-0.14,0.03-0.21
		c0.01-0.1,0.03-0.19,0.05-0.29c0.01-0.07,0.03-0.14,0.04-0.21c0.02-0.09,0.05-0.19,0.08-0.28c0.02-0.07,0.04-0.13,0.06-0.2
		c0.03-0.1,0.07-0.2,0.11-0.29c0.02-0.06,0.04-0.12,0.07-0.19c0.05-0.13,0.11-0.25,0.17-0.38c0.02-0.03,0.03-0.07,0.05-0.1
		c0.08-0.16,0.17-0.32,0.26-0.47c0.02-0.03,0.04-0.07,0.06-0.1c0.08-0.13,0.17-0.26,0.26-0.39c0.04-0.06,0.08-0.11,0.12-0.17
		c0.08-0.11,0.16-0.21,0.25-0.32c0.04-0.05,0.09-0.11,0.13-0.16c0.16-0.18,0.32-0.36,0.5-0.54c0,0,0.01-0.01,0.01-0.01
		c0.18-0.18,0.38-0.36,0.58-0.53c0.05-0.04,0.1-0.08,0.14-0.12c0.24-0.2,0.5-0.4,0.77-0.59c0.04-0.03,0.08-0.05,0.12-0.08
		c0.29-0.2,0.6-0.4,0.92-0.58c0.42-0.24,0.86-0.47,1.31-0.68c0.15-0.07,0.31-0.13,0.47-0.2c0.31-0.13,0.61-0.27,0.93-0.38
		c0.19-0.07,0.39-0.13,0.59-0.19c0.29-0.1,0.59-0.2,0.89-0.29c0.22-0.06,0.44-0.11,0.66-0.17c0.29-0.07,0.58-0.15,0.88-0.22
		c0.46-0.1,0.93-0.18,1.41-0.26c0.13-0.02,0.26-0.04,0.39-0.05c0.31-0.04,0.62-0.08,0.94-0.11c0.42-0.04,0.84-0.08,1.27-0.1
		c0.2-0.01,0.39-0.03,0.59-0.04c0.41-0.02,0.82-0.02,1.23-0.02c0.18,0,0.36-0.01,0.54,0c0.48,0.01,0.96,0.04,1.44,0.07
		c0.1,0.01,0.2,0.01,0.29,0.02c0.58,0.05,1.15,0.11,1.72,0.19c0.14,0.02,0.28,0.05,0.43,0.07c0.44,0.07,0.88,0.14,1.31,0.23
		c0.45,0.09,0.89,0.19,1.33,0.3c0.09,0.02,0.18,0.05,0.27,0.07c0.38,0.1,0.75,0.21,1.12,0.33c0.12,0.04,0.25,0.08,0.37,0.12
		c0.45,0.15,0.9,0.31,1.33,0.49c0.33,0.13,0.64,0.28,0.96,0.43c0.16,0.07,0.33,0.14,0.49,0.22c0.47,0.23,0.92,0.48,1.36,0.74
		l29.34,17.64l2.52,1.52l0.31-25.24L413.44,252.5z"/>
	<g>
		<polygon class="st4" points="434.67,243.22 434.36,268.45 415.66,279.25 415.97,254.02 		"/>
	</g>
	<path class="st4" d="M341.34,259.55l-1.33-0.8c-8.48-5.1-12.67-11.72-12.59-18.28l-0.31,25.24c-0.08,6.57,4.11,13.19,12.59,18.28
		l1.33,0.8l31.86,19.16l0.31-25.24L341.34,259.55z"/>
	<g>
		<path class="st2" d="M340.22,222.64c16.97-9.8,44.4-9.52,61.27,0.62l1.33,0.8l31.86,19.16l-18.71,10.8l-2.52-1.52l-29.34-17.64
			c-6.87-4.13-17.85-4.4-24.5-0.56c-6.66,3.84-6.43,10.31,0.45,14.45l29.34,17.64l2.52,1.52l-18.71,10.8l-31.86-19.16l-1.33-0.8
			C323.15,248.61,323.24,232.44,340.22,222.64z"/>
	</g>
	<g>
		<polygon class="st4" points="391.91,267.9 391.6,293.14 372.89,303.94 373.2,278.71 		"/>
	</g>
	<path class="st4" d="M292.03,264.55c-2.58-1.55-3.86-3.57-3.83-5.57l-0.31,25.24c-0.02,2,1.25,4.01,3.83,5.57l51.77,31.13
		l0.31-25.24L292.03,264.55z"/>
	<g>
		<polygon class="st4" points="362.51,284.88 362.2,310.12 343.49,320.92 343.8,295.68 		"/>
	</g>
	<g>
		<path class="st2" d="M292.09,253.56c5.17-2.98,13.51-2.9,18.65,0.19l51.77,31.13l-18.71,10.8l-51.77-31.13
			C286.89,261.46,286.92,256.54,292.09,253.56z"/>
	</g>
	<g>
		<defs>
			<path id="SVGID_00000020388367698872107660000001417296976849934238_" d="M283.61,299.52l-0.31,25.24
				c0.06-5.21-3.41-10.57-10.35-14.75c-13.27-7.98-34.2-8.57-46.74-1.33c-5.99,3.46-8.98,8.07-9.04,12.82l0.31-25.24
				c0.06-4.75,3.06-9.36,9.04-12.82c12.54-7.24,33.47-6.65,46.74,1.33C280.2,288.94,283.67,294.31,283.61,299.52z"/>
		</defs>
		<use xlink:href="#SVGID_00000020388367698872107660000001417296976849934238_"  style="overflow:visible;fill:#F0F0F0;"/>
		<clipPath id="SVGID_00000021806209179469430170000012904198841500888975_">
			<use xlink:href="#SVGID_00000020388367698872107660000001417296976849934238_"  style="overflow:visible;"/>
		</clipPath>
		<path style="clip-path:url(#SVGID_00000021806209179469430170000012904198841500888975_);fill:#F0F0F0;" d="M273.26,284.77
			c-1.75-1.05-3.63-1.98-5.61-2.77c-1.43-0.57-2.91-1.08-4.43-1.52c-1.25-0.36-2.53-0.68-3.82-0.94c-1.16-0.24-2.34-0.45-3.53-0.61
			c-1.14-0.16-2.28-0.28-3.43-0.37c-1.14-0.09-2.28-0.14-3.42-0.16c-1.18-0.02-2.36,0-3.52,0.05c-1.27,0.06-2.53,0.16-3.78,0.31
			c-1.51,0.18-2.99,0.42-4.44,0.73c-3.94,0.84-7.61,2.16-10.76,3.98c-1.31,0.76-2.48,1.57-3.51,2.43c-0.86,0.72-1.63,1.48-2.29,2.26
			c-0.54,0.64-1.02,1.3-1.42,1.97c-0.37,0.62-0.69,1.25-0.95,1.89c-0.25,0.62-0.45,1.25-0.59,1.89c-0.15,0.65-0.23,1.3-0.27,1.95
			c-0.01,0.14-0.01,0.28-0.01,0.43l-0.31,25.24c0-0.14,0.01-0.28,0.01-0.43c0.03-0.66,0.12-1.31,0.27-1.95
			c0.14-0.64,0.34-1.27,0.59-1.89c0.26-0.64,0.58-1.27,0.95-1.89c0.41-0.67,0.88-1.33,1.42-1.97c0.66-0.78,1.42-1.54,2.29-2.26
			c1.03-0.86,2.2-1.67,3.51-2.43c3.14-1.81,6.81-3.14,10.76-3.98c1.45-0.31,2.93-0.55,4.44-0.73c1.25-0.15,2.51-0.25,3.78-0.31
			c1.17-0.05,2.35-0.07,3.52-0.05c1.14,0.02,2.28,0.08,3.42,0.16c1.15,0.09,2.29,0.21,3.43,0.37c1.19,0.17,2.36,0.37,3.53,0.61
			c1.29,0.27,2.57,0.58,3.82,0.94c1.52,0.44,3,0.95,4.43,1.52c1.98,0.79,3.86,1.72,5.61,2.77c6.94,4.17,10.41,9.54,10.35,14.75
			l0.31-25.24C283.67,294.31,280.2,288.94,273.26,284.77z"/>
	</g>
	<path class="st4" d="M333.09,302.91c-0.01,0.1-0.02,0.19-0.03,0.29c-0.01,0.09-0.02,0.19-0.04,0.28c-0.01,0.09-0.03,0.19-0.05,0.28
		c-0.02,0.09-0.04,0.18-0.06,0.27c-0.02,0.09-0.05,0.19-0.08,0.28c-0.03,0.09-0.05,0.18-0.08,0.27c-0.03,0.09-0.07,0.19-0.1,0.28
		c-0.03,0.09-0.07,0.17-0.1,0.26c-0.04,0.1-0.09,0.21-0.14,0.31c-0.04,0.08-0.08,0.16-0.12,0.24c-0.05,0.1-0.11,0.2-0.17,0.31
		c-0.04,0.07-0.08,0.15-0.13,0.22c-0.1,0.16-0.2,0.31-0.31,0.46c-0.02,0.03-0.04,0.07-0.07,0.1c-0.13,0.18-0.28,0.37-0.43,0.54
		c-0.03,0.03-0.06,0.07-0.09,0.1c-0.16,0.19-0.34,0.38-0.52,0.56c-0.04,0.04-0.09,0.09-0.13,0.13c-0.21,0.2-0.43,0.4-0.66,0.6
		c-0.04,0.03-0.08,0.06-0.11,0.09c-0.3,0.25-0.61,0.49-0.94,0.72c-0.02,0.02-0.05,0.03-0.08,0.05c-0.35,0.24-0.71,0.47-1.1,0.69
		c-0.4,0.23-0.82,0.45-1.25,0.65c-0.05,0.02-0.09,0.05-0.14,0.07c-0.41,0.19-0.84,0.38-1.28,0.55c-0.07,0.03-0.14,0.06-0.21,0.08
		c-0.44,0.17-0.89,0.32-1.35,0.47c-0.08,0.03-0.16,0.05-0.24,0.07c-0.47,0.14-0.95,0.27-1.44,0.39c-0.07,0.02-0.14,0.03-0.22,0.05
		c-0.43,0.1-0.87,0.19-1.31,0.27c-0.13,0.02-0.26,0.05-0.39,0.07c-0.53,0.09-1.07,0.17-1.62,0.23c-0.07,0.01-0.15,0.01-0.23,0.02
		c-0.52,0.05-1.04,0.1-1.58,0.13c-0.06,0-0.12,0.01-0.19,0.01c-0.61,0.03-1.24,0.04-1.87,0.04l-7.52-0.08l-0.31,25.24l7.52,0.08
		c0.6,0.01,1.19,0,1.78-0.03c0.03,0,0.06,0,0.09-0.01c0.06,0,0.12-0.01,0.18-0.01c0.53-0.03,1.06-0.07,1.58-0.13
		c0.07-0.01,0.15-0.01,0.22-0.02c0.04,0,0.09-0.01,0.13-0.01c0.51-0.06,1.01-0.13,1.5-0.22c0.13-0.02,0.26-0.05,0.39-0.07
		c0.26-0.05,0.52-0.09,0.77-0.14c0.18-0.04,0.36-0.08,0.54-0.12c0.07-0.02,0.15-0.03,0.22-0.05c0.49-0.12,0.97-0.25,1.43-0.39
		c0.08-0.02,0.16-0.05,0.24-0.07c0.46-0.15,0.91-0.3,1.35-0.47c0.07-0.03,0.14-0.06,0.21-0.08c0.44-0.17,0.87-0.36,1.28-0.55
		c0.05-0.02,0.09-0.05,0.14-0.07c0.43-0.21,0.85-0.42,1.25-0.65c0.38-0.22,0.75-0.45,1.09-0.69c0.03-0.02,0.05-0.03,0.08-0.05
		c0.33-0.23,0.64-0.47,0.94-0.72c0.02-0.02,0.05-0.04,0.07-0.06c0.01-0.01,0.03-0.03,0.04-0.04c0.23-0.19,0.45-0.39,0.66-0.6
		c0.05-0.04,0.09-0.09,0.13-0.14c0.18-0.18,0.36-0.37,0.52-0.56c0.02-0.02,0.05-0.05,0.07-0.07c0.01-0.01,0.02-0.02,0.03-0.03
		c0.15-0.18,0.29-0.36,0.43-0.54c0.02-0.03,0.04-0.07,0.07-0.1c0.11-0.15,0.21-0.31,0.31-0.46c0.01-0.02,0.03-0.04,0.04-0.06
		c0.03-0.05,0.06-0.11,0.09-0.16c0.06-0.1,0.12-0.2,0.17-0.31c0.04-0.08,0.08-0.16,0.12-0.24c0.05-0.1,0.1-0.2,0.14-0.31
		c0.02-0.04,0.03-0.07,0.05-0.11c0.02-0.05,0.03-0.1,0.05-0.15c0.04-0.09,0.07-0.18,0.1-0.28c0.03-0.09,0.06-0.18,0.08-0.27
		c0.03-0.09,0.05-0.19,0.08-0.28c0.01-0.04,0.02-0.09,0.03-0.13c0.01-0.05,0.02-0.1,0.03-0.14c0.02-0.09,0.04-0.19,0.05-0.28
		c0.01-0.09,0.03-0.19,0.04-0.28c0.01-0.1,0.02-0.19,0.03-0.29c0-0.05,0.01-0.09,0.01-0.14c0-0.1,0.01-0.19,0.01-0.29l0.31-25.24
		C333.11,302.62,333.1,302.77,333.09,302.91z"/>
	<g>
		<defs>
			<path id="SVGID_00000009587374536494887940000003958348163549593736_" d="M189.94,320.15l0.31-25.24
				c-0.12,9.49,6.21,19.28,18.87,26.89c24.19,14.55,62.36,15.63,85.24,2.42c5.52-3.19,9.64-6.92,12.39-10.94l-0.31,25.24
				c-2.75,4.03-6.87,7.76-12.39,10.94c-22.88,13.21-61.05,12.13-85.24-2.42C196.15,339.43,189.82,329.65,189.94,320.15z"/>
		</defs>
		<use xlink:href="#SVGID_00000009587374536494887940000003958348163549593736_"  style="overflow:visible;fill:#F0F0F0;"/>
		<clipPath id="SVGID_00000033334584975111444320000006555717141706000307_">
			<use xlink:href="#SVGID_00000009587374536494887940000003958348163549593736_"  style="overflow:visible;"/>
		</clipPath>
		<path style="clip-path:url(#SVGID_00000033334584975111444320000006555717141706000307_);fill:#F0F0F0;" d="M304.93,315.66
			c-1.21,1.43-2.6,2.81-4.17,4.13c-1.87,1.57-4.01,3.06-6.4,4.44c-5.73,3.31-12.43,5.72-19.62,7.25c-2.64,0.56-5.34,1-8.09,1.33
			c-2.27,0.27-4.57,0.45-6.89,0.56c-2.13,0.1-4.28,0.13-6.43,0.09c-2.08-0.04-4.16-0.14-6.24-0.3c-2.09-0.16-4.18-0.39-6.26-0.68
			c-2.16-0.3-4.31-0.68-6.43-1.12c-2.36-0.49-4.68-1.06-6.96-1.72c-2.77-0.8-5.47-1.72-8.08-2.77c-3.61-1.45-7.04-3.13-10.23-5.05
			c-12.66-7.61-18.98-17.39-18.87-26.89l-0.31,25.24c-0.12,9.49,6.21,19.28,18.87,26.89c3.19,1.92,6.62,3.6,10.23,5.05
			c2.61,1.05,5.31,1.97,8.08,2.77c2.28,0.66,4.61,1.23,6.96,1.72c2.12,0.44,4.27,0.81,6.43,1.12c2.07,0.29,4.16,0.52,6.26,0.68
			c2.08,0.16,4.16,0.26,6.24,0.3c2.15,0.04,4.3,0.01,6.43-0.09c2.32-0.11,4.62-0.29,6.89-0.56c2.75-0.32,5.45-0.76,8.09-1.33
			c7.19-1.53,13.89-3.94,19.62-7.25c2.4-1.38,4.53-2.87,6.4-4.44c1.58-1.32,2.97-2.7,4.17-4.13c0.66-0.78,1.26-1.57,1.81-2.38
			l0.31-25.24C306.19,314.09,305.59,314.88,304.93,315.66z"/>
	</g>
	<g>
		<path class="st2" d="M310.65,297.78l22.48,0.23l-0.02,4.47c-0.02,3.06-2.14,5.8-5.55,7.77c-3.41,1.97-8.11,3.16-13.3,3.11
			l-7.52-0.08c-2.75,4.03-6.87,7.76-12.39,10.94c-22.88,13.21-61.05,12.13-85.24-2.42s-25.26-37.05-2.38-50.26
			c22.88-13.21,61.04-12.12,85.24,2.42C303.27,280.76,309.52,289.28,310.65,297.78z M274.57,312.33
			c12.54-7.24,11.96-19.58-1.31-27.56c-13.27-7.98-34.2-8.57-46.74-1.33c-12.55,7.24-11.97,19.58,1.3,27.56
			C241.09,318.98,262.02,319.58,274.57,312.33"/>
	</g>
</g>
<g>
	<path class="st2" d="M98.61,164.24c0,0.11-0.01,0.22-0.01,0.33c-0.01,0.09-0.01,0.19-0.02,0.28c-0.01,0.08-0.02,0.17-0.03,0.25
		c-0.01,0.09-0.03,0.19-0.04,0.28c-0.02,0.08-0.03,0.17-0.05,0.25c-0.02,0.09-0.04,0.18-0.07,0.27c-0.02,0.08-0.05,0.17-0.07,0.25
		c-0.03,0.09-0.06,0.18-0.09,0.27c-0.03,0.08-0.06,0.16-0.09,0.24c-0.04,0.1-0.08,0.19-0.12,0.29c-0.04,0.08-0.07,0.16-0.11,0.24
		c-0.05,0.09-0.1,0.19-0.15,0.28c-0.04,0.08-0.08,0.15-0.13,0.23c-0.07,0.11-0.13,0.22-0.21,0.33c-0.04,0.07-0.09,0.14-0.13,0.2
		c-0.08,0.12-0.17,0.24-0.27,0.36c-0.04,0.05-0.08,0.11-0.12,0.16c-0.15,0.19-0.32,0.38-0.49,0.57c-0.04,0.05-0.09,0.1-0.14,0.14
		c-0.14,0.14-0.28,0.28-0.43,0.42c-0.07,0.06-0.14,0.13-0.21,0.19c-0.09,0.08-0.18,0.16-0.27,0.24c-0.09,0.07-0.17,0.14-0.26,0.22
		c-0.1,0.08-0.2,0.15-0.3,0.23c-0.09,0.07-0.18,0.14-0.28,0.21c-0.1,0.08-0.21,0.15-0.32,0.22c-0.1,0.07-0.2,0.14-0.3,0.2
		c-0.11,0.07-0.23,0.14-0.34,0.22c-0.14,0.09-0.29,0.18-0.44,0.27l-55.77,32.41l-0.07,25.46l55.77-32.41
		c0.08-0.04,0.15-0.09,0.23-0.14c0.07-0.04,0.14-0.09,0.21-0.13c0.12-0.07,0.23-0.14,0.34-0.22c0.1-0.07,0.2-0.14,0.3-0.2
		c0.11-0.07,0.22-0.15,0.32-0.22c0.09-0.07,0.19-0.14,0.28-0.21c0.1-0.08,0.2-0.15,0.3-0.23c0.09-0.07,0.17-0.14,0.26-0.22
		c0.09-0.08,0.18-0.16,0.27-0.24c0.04-0.03,0.08-0.06,0.11-0.1c0.03-0.03,0.06-0.06,0.09-0.09c0.15-0.14,0.29-0.28,0.43-0.42
		c0.05-0.05,0.09-0.1,0.14-0.14c0.17-0.19,0.34-0.38,0.49-0.57c0.01-0.01,0.01-0.02,0.02-0.02c0.04-0.04,0.06-0.09,0.1-0.13
		c0.09-0.12,0.18-0.24,0.27-0.36c0.05-0.07,0.09-0.13,0.13-0.2c0.07-0.11,0.14-0.22,0.21-0.33c0.02-0.03,0.04-0.06,0.06-0.09
		c0.03-0.05,0.05-0.09,0.07-0.14c0.05-0.09,0.1-0.19,0.15-0.28c0.04-0.08,0.08-0.16,0.11-0.24c0.04-0.09,0.08-0.19,0.12-0.29
		c0.02-0.04,0.04-0.08,0.05-0.13c0.01-0.04,0.02-0.08,0.04-0.12c0.03-0.09,0.06-0.18,0.09-0.27c0.03-0.08,0.05-0.17,0.07-0.25
		c0.02-0.09,0.05-0.18,0.07-0.28c0.01-0.05,0.03-0.1,0.04-0.15c0.01-0.03,0.01-0.07,0.02-0.1c0.02-0.09,0.03-0.19,0.04-0.28
		c0.01-0.08,0.02-0.16,0.03-0.25c0.01-0.09,0.02-0.19,0.02-0.28c0-0.06,0.01-0.11,0.01-0.17c0-0.06,0-0.11,0-0.17v0L98.61,164.24z"
		/>
	<polygon class="st2" points="18.78,215.11 0.07,204.31 0,229.77 18.71,240.57 48.11,257.55 48.18,232.08 	"/>
	<path class="st2" d="M58.95,221.67c-0.01,0.09-0.01,0.19-0.02,0.28c-0.01,0.08-0.02,0.16-0.03,0.25c-0.01,0.09-0.03,0.19-0.04,0.28
		c-0.02,0.08-0.03,0.17-0.05,0.25c-0.02,0.09-0.04,0.18-0.07,0.28c-0.02,0.08-0.05,0.17-0.07,0.25c-0.03,0.09-0.06,0.18-0.09,0.27
		c-0.03,0.08-0.06,0.16-0.09,0.24c-0.04,0.1-0.08,0.19-0.12,0.29c-0.04,0.08-0.07,0.16-0.11,0.24c-0.05,0.09-0.1,0.19-0.15,0.28
		c-0.04,0.08-0.08,0.15-0.13,0.23c-0.07,0.11-0.13,0.22-0.21,0.33c-0.04,0.07-0.09,0.13-0.13,0.2c-0.08,0.12-0.18,0.24-0.27,0.37
		c-0.04,0.05-0.08,0.1-0.12,0.16c-0.15,0.19-0.32,0.38-0.49,0.57c-0.04,0.05-0.09,0.1-0.14,0.14c-0.14,0.14-0.28,0.28-0.43,0.42
		c-0.07,0.06-0.14,0.13-0.21,0.19c-0.09,0.08-0.18,0.16-0.27,0.24c-0.09,0.07-0.17,0.14-0.26,0.22c-0.1,0.08-0.2,0.15-0.3,0.23
		c-0.09,0.07-0.18,0.14-0.28,0.21c-0.1,0.08-0.21,0.15-0.32,0.22c-0.1,0.07-0.2,0.14-0.3,0.2c-0.11,0.07-0.23,0.14-0.34,0.22
		c-0.14,0.09-0.29,0.18-0.44,0.27l-5.31,3.09l-0.07,25.46l5.31-3.09c0.08-0.04,0.15-0.09,0.23-0.14c0.07-0.04,0.14-0.09,0.21-0.13
		c0.12-0.07,0.23-0.14,0.34-0.22c0.1-0.07,0.2-0.14,0.3-0.2c0.11-0.07,0.22-0.15,0.32-0.22c0.1-0.07,0.19-0.14,0.28-0.21
		c0.1-0.08,0.2-0.15,0.3-0.23c0.09-0.07,0.17-0.14,0.26-0.22c0.09-0.08,0.18-0.16,0.27-0.24c0.04-0.03,0.08-0.06,0.11-0.1
		c0.03-0.03,0.06-0.06,0.09-0.09c0.15-0.14,0.29-0.28,0.43-0.42c0.05-0.05,0.09-0.1,0.14-0.14c0.17-0.19,0.34-0.38,0.49-0.57
		c0.01-0.01,0.01-0.02,0.02-0.02c0.03-0.04,0.06-0.09,0.1-0.13c0.09-0.12,0.18-0.24,0.27-0.36c0.05-0.07,0.09-0.13,0.13-0.2
		c0.07-0.11,0.14-0.22,0.21-0.33c0.02-0.03,0.04-0.06,0.06-0.09c0.03-0.05,0.05-0.09,0.07-0.14c0.05-0.09,0.1-0.19,0.15-0.28
		c0.04-0.08,0.08-0.16,0.11-0.24c0.04-0.09,0.08-0.19,0.12-0.29c0.02-0.04,0.04-0.08,0.05-0.13c0.01-0.04,0.02-0.08,0.04-0.12
		c0.03-0.09,0.06-0.18,0.09-0.27c0.03-0.08,0.05-0.17,0.07-0.25c0.02-0.09,0.05-0.18,0.07-0.27c0.01-0.05,0.03-0.1,0.04-0.15
		c0.01-0.03,0.01-0.07,0.02-0.1c0.02-0.09,0.03-0.19,0.04-0.28c0.01-0.08,0.02-0.16,0.03-0.25c0.01-0.09,0.02-0.19,0.02-0.28
		c0-0.06,0.01-0.11,0.01-0.17c0-0.06,0-0.11,0-0.17l0.07-25.46C58.97,221.45,58.96,221.56,58.95,221.67z"/>
	<g>
		<path class="st4" d="M93.04,156.47c7.38,4.26,7.42,11.17,0.09,15.43l-55.77,32.41l16.03,9.26c7.38,4.26,7.42,11.17,0.09,15.43
			l-5.31,3.09l-29.4-16.97l-18.71-10.8l18.59-10.8l69.04-40.12L93.04,156.47z"/>
	</g>
	<g class="st10">
		<defs>
			<path id="SVGID_00000116208832276942532620000012789665357878843026_" class="st10" d="M161.63,198.18l-0.07,25.46
				c-0.01,2.22-1.46,4.44-4.38,6.13c-5.87,3.41-15.41,3.41-21.31,0c-2.97-1.72-4.45-3.97-4.45-6.21l0.07-25.46
				c-0.01,2.25,1.48,4.5,4.45,6.21c5.9,3.41,15.45,3.41,21.31,0C160.17,202.61,161.62,200.4,161.63,198.18z"/>
		</defs>
		<use xlink:href="#SVGID_00000116208832276942532620000012789665357878843026_"  style="overflow:visible;fill:#151515;"/>
		<clipPath id="SVGID_00000078740711844322351420000001214119694854660017_">
			<use xlink:href="#SVGID_00000116208832276942532620000012789665357878843026_"  style="overflow:visible;"/>
		</clipPath>
		<path style="clip-path:url(#SVGID_00000078740711844322351420000001214119694854660017_);fill:#151515;" d="M161.63,198.31
			c-0.01,0.29-0.04,0.58-0.1,0.86c-0.06,0.28-0.14,0.57-0.24,0.85c-0.11,0.29-0.24,0.57-0.4,0.86c-0.17,0.31-0.37,0.61-0.61,0.9
			c-0.27,0.34-0.58,0.68-0.93,1c-0.54,0.5-1.18,0.97-1.91,1.41c-0.06,0.04-0.12,0.07-0.18,0.11c-1,0.58-2.12,1.07-3.3,1.45
			c-0.91,0.3-1.87,0.53-2.85,0.71c-0.63,0.11-1.27,0.2-1.92,0.27c-0.55,0.06-1.11,0.09-1.67,0.11c-0.51,0.02-1.03,0.02-1.54,0.01
			c-0.5-0.01-0.99-0.04-1.48-0.08c-0.49-0.04-0.98-0.1-1.47-0.16c-0.5-0.07-1-0.16-1.49-0.26c-0.53-0.11-1.06-0.24-1.57-0.39
			c-0.63-0.18-1.24-0.39-1.83-0.62c-0.77-0.3-1.49-0.65-2.17-1.04c-2.97-1.72-4.45-3.97-4.45-6.21l-0.07,25.46
			c-0.01,2.25,1.48,4.5,4.45,6.21c0.68,0.39,1.41,0.74,2.17,1.04c0.59,0.23,1.2,0.44,1.83,0.62c0.51,0.15,1.04,0.27,1.57,0.39
			c0.49,0.1,0.99,0.19,1.49,0.26c0.48,0.07,0.97,0.12,1.47,0.16c0.49,0.04,0.99,0.07,1.48,0.08c0.51,0.01,1.03,0.01,1.54-0.01
			c0.56-0.02,1.12-0.06,1.67-0.11c0.65-0.06,1.29-0.15,1.92-0.27c0.98-0.18,1.94-0.41,2.85-0.71c1.18-0.38,2.3-0.87,3.3-1.45
			c0.06-0.04,0.12-0.07,0.18-0.11c0.73-0.44,1.37-0.91,1.91-1.41c0.35-0.33,0.66-0.66,0.93-1c0.23-0.29,0.43-0.6,0.61-0.9
			c0.16-0.28,0.29-0.57,0.4-0.86c0.11-0.28,0.19-0.56,0.24-0.85c0.06-0.29,0.09-0.58,0.1-0.86c0-0.04,0-0.09,0-0.13l0.07-25.46
			C161.63,198.22,161.63,198.27,161.63,198.31z"/>
	</g>
	<g>
		
			<ellipse transform="matrix(2.835826e-03 -1 1 2.835826e-03 -51.9869 344.1339)" class="st4" cx="146.56" cy="198.13" rx="8.73" ry="15.07"/>
	</g>
	<path class="st2" d="M133.16,213.99c-0.01,0.14-0.02,0.28-0.05,0.42c-0.02,0.11-0.06,0.23-0.08,0.34
		c-0.03,0.13-0.07,0.26-0.11,0.39c-0.04,0.11-0.09,0.21-0.14,0.32c-0.06,0.14-0.12,0.28-0.19,0.41c-0.1,0.19-0.21,0.37-0.34,0.56
		c-0.02,0.03-0.04,0.06-0.06,0.09c-0.13,0.18-0.28,0.36-0.43,0.54c-0.03,0.03-0.06,0.07-0.09,0.1c-0.17,0.19-0.36,0.37-0.56,0.55
		c-0.13,0.11-0.27,0.22-0.41,0.34c-0.12,0.1-0.24,0.2-0.37,0.29c-0.15,0.11-0.31,0.21-0.48,0.32c-0.17,0.11-0.32,0.22-0.5,0.32
		l-51.78,30.09l-0.07,25.46l51.78-30.09c0.05-0.03,0.11-0.06,0.16-0.1c0.12-0.07,0.22-0.15,0.34-0.23c0.16-0.1,0.33-0.21,0.48-0.32
		c0.13-0.1,0.25-0.19,0.37-0.29c0.14-0.11,0.28-0.22,0.41-0.33c0.03-0.02,0.06-0.04,0.08-0.07c0.17-0.16,0.33-0.32,0.47-0.48
		c0.03-0.03,0.06-0.07,0.09-0.1c0.09-0.1,0.18-0.2,0.26-0.3c0.06-0.08,0.12-0.16,0.18-0.24c0.02-0.03,0.04-0.06,0.06-0.09
		c0.1-0.15,0.2-0.3,0.29-0.46c0.02-0.03,0.03-0.07,0.05-0.1c0.07-0.14,0.13-0.27,0.19-0.41c0.03-0.08,0.08-0.16,0.11-0.24
		c0.01-0.03,0.01-0.05,0.02-0.08c0.05-0.13,0.08-0.26,0.11-0.39c0.02-0.09,0.06-0.18,0.08-0.27c0-0.02,0-0.05,0.01-0.07
		c0.03-0.14,0.03-0.28,0.05-0.41c0.01-0.09,0.03-0.18,0.03-0.27c0-0.04,0-0.08,0-0.12l0.07-25.46
		C133.19,213.73,133.17,213.86,133.16,213.99z"/>
	<g>
		<polygon class="st2" points="77.58,249.06 77.51,274.52 58.8,263.72 58.87,238.26 		"/>
	</g>
	<g>
		<path class="st4" d="M129.3,208.16c5.17,2.98,5.19,7.82,0.06,10.8l-51.78,30.09l-18.71-10.8l51.78-30.09
			C115.79,205.18,124.14,205.18,129.3,208.16z"/>
	</g>
	<path class="st2" d="M166.12,245.6c-0.48-0.28-0.98-0.54-1.5-0.78c-0.17-0.08-0.35-0.15-0.52-0.23c-0.28-0.13-0.56-0.26-0.86-0.37
		c-0.08-0.03-0.17-0.06-0.25-0.09c-0.13-0.05-0.25-0.09-0.38-0.14c-0.43-0.16-0.87-0.3-1.32-0.44c-0.11-0.03-0.21-0.07-0.32-0.1
		c-0.05-0.01-0.1-0.03-0.15-0.05c-0.48-0.14-0.97-0.26-1.46-0.37c-0.1-0.02-0.2-0.05-0.3-0.07c-0.12-0.03-0.23-0.05-0.35-0.08
		c-0.22-0.05-0.45-0.08-0.67-0.12c-0.35-0.07-0.71-0.13-1.06-0.19c-0.1-0.01-0.19-0.04-0.28-0.05c-0.23-0.03-0.46-0.05-0.69-0.08
		c-0.34-0.04-0.67-0.08-1.01-0.11c-0.1-0.01-0.2-0.03-0.31-0.03c-0.22-0.02-0.45-0.02-0.68-0.04c-0.35-0.02-0.7-0.04-1.05-0.06
		c-0.11,0-0.22-0.01-0.33-0.02c-0.2-0.01-0.41,0-0.62,0c-0.39,0-0.78,0-1.17,0.01c-0.13,0-0.26,0-0.38,0
		c-0.4,0.01-0.8,0.03-1.21,0.06c-0.02,0-0.04,0-0.05,0c-0.37,0.03-0.74,0.05-1.1,0.09c-0.2,0.02-0.4,0.05-0.59,0.07
		c-0.16,0.02-0.32,0.04-0.48,0.06c-0.58,0.08-1.16,0.16-1.74,0.26c-0.01,0-0.02,0-0.03,0.01c-0.69,0.13-1.37,0.27-2.04,0.44
		c-0.19,0.05-0.37,0.1-0.55,0.15c-0.48,0.13-0.96,0.26-1.42,0.41c-0.04,0.01-0.09,0.02-0.13,0.04c-0.49,0.16-0.98,0.33-1.45,0.52
		c-0.12,0.05-0.23,0.1-0.35,0.14c-0.42,0.17-0.83,0.35-1.24,0.54c-0.14,0.07-0.28,0.13-0.42,0.2c-0.5,0.24-0.99,0.5-1.46,0.77
		c-0.09,0.05-0.19,0.11-0.28,0.16c-0.08,0.05-0.16,0.1-0.24,0.15c-0.14,0.09-0.28,0.18-0.42,0.26c-0.12,0.08-0.23,0.16-0.35,0.24
		c-0.13,0.09-0.26,0.18-0.39,0.27c-0.11,0.08-0.22,0.16-0.33,0.24c-0.12,0.09-0.24,0.19-0.36,0.28c-0.1,0.08-0.2,0.17-0.3,0.25
		c-0.11,0.1-0.22,0.19-0.33,0.29c-0.05,0.04-0.1,0.09-0.15,0.13c-0.04,0.03-0.06,0.07-0.1,0.1c-0.18,0.17-0.36,0.35-0.53,0.53
		c-0.04,0.05-0.09,0.09-0.13,0.14c-0.2,0.22-0.4,0.45-0.58,0.67c-0.01,0.02-0.03,0.03-0.04,0.05c-0.04,0.05-0.08,0.11-0.12,0.17
		c-0.1,0.13-0.2,0.27-0.29,0.4c-0.06,0.08-0.11,0.16-0.16,0.25c-0.08,0.13-0.16,0.26-0.24,0.39c-0.02,0.04-0.05,0.08-0.08,0.13
		c-0.03,0.05-0.05,0.09-0.07,0.14c-0.06,0.11-0.11,0.22-0.17,0.33c-0.05,0.09-0.09,0.19-0.13,0.28c-0.05,0.11-0.09,0.22-0.14,0.33
		c-0.02,0.06-0.05,0.11-0.07,0.17c-0.01,0.04-0.02,0.08-0.04,0.11c-0.04,0.1-0.07,0.21-0.1,0.31c-0.03,0.1-0.06,0.19-0.09,0.29
		c-0.03,0.1-0.05,0.21-0.08,0.31c-0.01,0.06-0.03,0.13-0.05,0.19c-0.01,0.03-0.01,0.07-0.02,0.1c-0.02,0.1-0.03,0.21-0.05,0.31
		c-0.01,0.1-0.03,0.2-0.04,0.29c-0.01,0.1-0.02,0.21-0.02,0.31c0,0.07-0.01,0.13-0.01,0.2c0,0.06,0,0.13,0,0.19l-0.07,25.46
		c0-0.13,0.01-0.26,0.02-0.39c0.01-0.1,0.01-0.21,0.02-0.31c0.01-0.1,0.02-0.2,0.04-0.29c0.01-0.1,0.03-0.21,0.05-0.31
		c0.02-0.1,0.04-0.19,0.06-0.29c0.02-0.1,0.05-0.21,0.08-0.31c0.03-0.1,0.06-0.2,0.09-0.29c0.03-0.1,0.07-0.21,0.1-0.31
		c0.03-0.1,0.07-0.19,0.11-0.29c0.04-0.11,0.09-0.22,0.14-0.33c0.04-0.09,0.09-0.19,0.13-0.28c0.05-0.11,0.11-0.22,0.17-0.32
		c0.05-0.09,0.1-0.18,0.15-0.26c0.08-0.13,0.16-0.26,0.24-0.39c0.05-0.08,0.11-0.16,0.16-0.25c0.09-0.13,0.19-0.27,0.29-0.4
		c0.05-0.07,0.11-0.14,0.16-0.21c0.18-0.23,0.37-0.45,0.57-0.67c0.04-0.05,0.09-0.09,0.13-0.14c0.17-0.18,0.35-0.35,0.53-0.53
		c0.08-0.08,0.16-0.15,0.25-0.23c0.11-0.1,0.22-0.19,0.33-0.29c0.1-0.08,0.2-0.17,0.3-0.25c0.12-0.09,0.24-0.19,0.36-0.28
		c0.11-0.08,0.21-0.16,0.33-0.24c0.13-0.09,0.26-0.18,0.39-0.27c0.11-0.08,0.23-0.16,0.35-0.24c0.14-0.09,0.28-0.18,0.42-0.26
		c0.17-0.11,0.34-0.21,0.51-0.31c0.47-0.27,0.96-0.53,1.46-0.77c0.14-0.07,0.28-0.13,0.42-0.2c0.4-0.19,0.82-0.37,1.24-0.54
		c0.12-0.05,0.23-0.1,0.35-0.14c0.52-0.2,1.05-0.38,1.58-0.56c0.47-0.15,0.94-0.28,1.42-0.41c0.19-0.05,0.36-0.11,0.55-0.15
		c0.67-0.17,1.35-0.31,2.04-0.44c0.58-0.11,1.17-0.19,1.76-0.27c0.16-0.02,0.32-0.04,0.48-0.06c0.56-0.07,1.13-0.12,1.7-0.16
		c0.02,0,0.04,0,0.05,0c0.53-0.04,1.06-0.05,1.59-0.06c0.39-0.01,0.78-0.01,1.17-0.01c0.31,0,0.63,0,0.94,0.01
		c0.35,0.01,0.7,0.03,1.05,0.06c0.33,0.02,0.66,0.04,0.98,0.07c0.34,0.03,0.68,0.07,1.01,0.11c0.32,0.04,0.65,0.08,0.97,0.13
		c0.36,0.05,0.71,0.12,1.06,0.18c0.34,0.06,0.69,0.12,1.02,0.2c0.1,0.02,0.2,0.04,0.3,0.07c0.55,0.13,1.09,0.26,1.61,0.42
		c0.11,0.03,0.21,0.07,0.32,0.1c0.45,0.14,0.89,0.28,1.32,0.44c0.13,0.05,0.26,0.09,0.38,0.14c0.38,0.14,0.75,0.3,1.11,0.47
		c0.17,0.08,0.35,0.15,0.52,0.23c0.52,0.24,1.02,0.5,1.5,0.78c3.97,2.29,5.94,5.32,5.93,8.39l0.07-25.46
		C172.06,250.93,170.09,247.9,166.12,245.6z"/>
	<g class="st10">
		<defs>
			<path id="SVGID_00000018229858194865275460000016245447234287802797_" class="st10" d="M195.15,253.49l-0.07,25.46
				c-0.02,6.7-4.55,13.49-13.54,18.72c-17.6,10.23-45.63,10.57-62.6,0.77c-8.31-4.8-12.43-11.13-12.41-17.55l0.07-25.46
				c-0.02,6.42,4.1,12.75,12.41,17.55c16.97,9.8,45,9.45,62.6-0.77C190.6,266.98,195.13,260.19,195.15,253.49z"/>
		</defs>
		<use xlink:href="#SVGID_00000018229858194865275460000016245447234287802797_"  style="overflow:visible;fill:#151515;"/>
		<clipPath id="SVGID_00000145736910896487977840000008708684843865370516_">
			<use xlink:href="#SVGID_00000018229858194865275460000016245447234287802797_"  style="overflow:visible;"/>
		</clipPath>
		<path style="clip-path:url(#SVGID_00000145736910896487977840000008708684843865370516_);fill:#151515;" d="M195.14,253.88
			c-0.02,0.85-0.12,1.71-0.29,2.56c-0.17,0.85-0.41,1.7-0.73,2.54c-0.33,0.87-0.73,1.74-1.21,2.59c-0.53,0.94-1.15,1.86-1.86,2.77
			c-0.83,1.06-1.79,2.09-2.88,3.1c-1.69,1.56-3.68,3.04-5.97,4.42c-0.19,0.12-0.39,0.23-0.58,0.34c-3.14,1.83-6.62,3.34-10.31,4.53
			c-2.8,0.91-5.73,1.63-8.72,2.17c-1.93,0.35-3.9,0.62-5.87,0.82c-1.64,0.16-3.29,0.27-4.94,0.33c-1.52,0.05-3.03,0.06-4.55,0.02
			c-1.44-0.04-2.87-0.11-4.3-0.23c-1.41-0.12-2.81-0.27-4.2-0.47c-1.43-0.2-2.83-0.45-4.22-0.73c-1.5-0.31-2.97-0.67-4.41-1.08
			c-1.74-0.5-3.44-1.07-5.07-1.71c-2.12-0.84-4.13-1.8-6.01-2.88c-8.31-4.8-12.43-11.13-12.41-17.55l-0.07,25.46
			c-0.02,6.42,4.1,12.75,12.41,17.55c1.88,1.08,3.89,2.04,6.01,2.88c1.63,0.64,3.33,1.21,5.07,1.71c1.44,0.41,2.91,0.77,4.41,1.08
			c1.39,0.29,2.8,0.53,4.22,0.73c1.38,0.2,2.79,0.35,4.2,0.47c1.42,0.12,2.86,0.19,4.3,0.23c1.51,0.04,3.03,0.03,4.55-0.02
			c1.65-0.06,3.3-0.17,4.94-0.33c1.98-0.2,3.94-0.47,5.87-0.82c2.99-0.54,5.92-1.27,8.72-2.17c3.69-1.2,7.17-2.71,10.31-4.53
			c0.2-0.11,0.39-0.23,0.58-0.34c2.29-1.38,4.28-2.86,5.97-4.42c1.09-1,2.05-2.04,2.88-3.1c0.71-0.91,1.33-1.83,1.86-2.77
			c0.48-0.85,0.89-1.72,1.21-2.59c0.32-0.84,0.56-1.69,0.73-2.54c0.17-0.85,0.27-1.7,0.29-2.56c0-0.13,0.01-0.26,0.01-0.39
			l0.07-25.46C195.15,253.62,195.15,253.75,195.14,253.88z"/>
	</g>
	<g>
		<path class="st4" d="M182.74,235.94c16.97,9.8,16.47,26.03-1.13,36.26s-45.63,10.57-62.6,0.77c-16.98-9.8-16.47-26.04,1.13-36.26
			C137.74,226.49,165.77,226.14,182.74,235.94z M135.64,263.32c8.12,4.69,21.52,4.52,29.94-0.37c8.42-4.89,8.66-12.65,0.54-17.34
			c-8.12-4.69-21.52-4.53-29.94,0.37C127.76,250.86,127.52,258.63,135.64,263.32"/>
	</g>
</g>
</svg>
