<?xml version="1.0" encoding="UTF-8" standalone="no"?>
<svg
   width="600"
   height="600"
   fill="#ee1c25"
   version="1.1"
   id="svg5"
   sodipodi:docname="Flag_of_Hong_Kong.svg"
   inkscape:version="1.4.2 (f4327f4, 2025-05-13)"
   xmlns:inkscape="http://www.inkscape.org/namespaces/inkscape"
   xmlns:sodipodi="http://sodipodi.sourceforge.net/DTD/sodipodi-0.dtd"
   xmlns:xlink="http://www.w3.org/1999/xlink"
   xmlns="http://www.w3.org/2000/svg"
   xmlns:svg="http://www.w3.org/2000/svg">
  <defs
     id="defs5" />
  <sodipodi:namedview
     id="namedview5"
     pagecolor="#ffffff"
     bordercolor="#000000"
     borderopacity="0.25"
     inkscape:showpageshadow="2"
     inkscape:pageopacity="0.0"
     inkscape:pagecheckerboard="0"
     inkscape:deskcolor="#d1d1d1"
     inkscape:zoom="0.5"
     inkscape:cx="304"
     inkscape:cy="782"
     inkscape:window-width="2540"
     inkscape:window-height="1350"
     inkscape:window-x="2"
     inkscape:window-y="49"
     inkscape:window-maximized="0"
     inkscape:current-layer="svg5" />
  <circle
     style="fill:#ee1c25;fill-opacity:1;stroke-width:226.772"
     id="path6"
     cx="300"
     cy="300"
     r="300" />
  <g
     id="a"
     transform="translate(-149.996)">
    <path
       d="m 492.93602,125.19583 a 27.917245,27.917245 0 0 0 -14.90158,41.79189 45.171052,45.171052 0 0 1 -20.28993,66.20424 38.650583,38.650583 0 0 0 -10.81647,64.31302 68.374981,68.374981 0 0 1 -17.06784,-93.91359 15.809868,15.809868 0 0 1 -1.10911,-1.04777 69.880683,69.880683 0 0 0 16.75444,95.79314 90.342104,90.342104 0 0 1 47.43049,-173.14093"
       fill="#ffffff"
       id="path2" />
    <path
       d="m 451.97933,181.09941 -27.56474,12.02164 29.36649,6.47643 -19.95123,-22.50073 2.91528,29.93051"
       id="path3" />
  </g>
  <g
     id="b"
     transform="translate(-149.996)">
    <use
       xlink:href="#a"
       transform="rotate(72,375.002,403.22589)"
       id="use3" />
    <use
       xlink:href="#a"
       transform="rotate(-144,375.002,275.63167)"
       id="use4" />
  </g>
  <use
     xlink:href="#b"
     transform="rotate(72,300.004,300)"
     id="use5" />
</svg>
