<svg id="Layer_1" data-name="Layer 1" xmlns="http://www.w3.org/2000/svg" xmlns:xlink="http://www.w3.org/1999/xlink" viewBox="0 0 443.4783 443.4783"><defs><style>.cls-1,.cls-6{fill:#fb5264;}.cls-1,.cls-4,.cls-8{stroke:#fff;stroke-linejoin:round;stroke-width:2px;}.cls-2{fill:#1a1a1a;}.cls-3{opacity:0.6;}.cls-4{fill:#24fb61;}.cls-5{isolation:isolate;}.cls-7{clip-path:url(#clip-path);}.cls-8{fill:none;}.cls-9{clip-path:url(#clip-path-2);}.cls-10{fill:#fff;}</style><clipPath id="clip-path" transform="translate(-186.7609 -124.6994)"><path class="cls-1" d="M505.5316,291.5375l-.1156,40.7581c-.01,3.5526-2.3446,7.1-7.0084,9.81-9.3879,5.4556-24.6613,5.4557-34.1106,0-4.755-2.7453-7.13-6.3494-7.12-9.9479l.1155-40.7582c-.01,3.5986,2.3647,7.2027,7.12,9.948,9.4493,5.4555,24.7227,5.4555,34.1105,0C503.1869,298.6374,505.5215,295.09,505.5316,291.5375Z"/></clipPath><clipPath id="clip-path-2" transform="translate(-186.7609 -124.6994)"><path class="cls-1" d="M559.1841,380.0714l-.1155,40.7581c-.03,10.7249-7.28,21.5952-21.6686,29.9567-28.17,16.3706-73.0325,16.9237-100.1992,1.239-13.295-7.6759-19.8916-17.8173-19.8625-28.0915l.1155-40.7581c-.0291,10.2742,6.5676,20.4156,19.8626,28.0915,27.1667,15.6847,72.0292,15.1316,100.1992-1.239C551.9036,401.6666,559.1537,390.7963,559.1841,380.0714Z"/></clipPath></defs><g id="Layer_4" data-name="Layer 4"><rect class="cls-2" width="443.4783" height="443.4783" rx="100.2148"/></g><g class="cls-3"><path d="M449.7477,265.7781l-8.5554-4.94h-54L276.6818,325.06l-29.75,17.2885,29.95,17.2919,47.0613,27.1708h54l8.5-4.94c11.7349-6.82,11.6726-17.8781-.1454-24.7012l-25.6663-14.8185,89.2609-51.8728C461.628,283.66,461.5657,272.6012,449.7477,265.7781Z" transform="translate(-186.7609 -124.6994)"/><path d="M507.7878,348.5222a30.6154,30.6154,0,0,0-15.114-3.5749l.0055-.0042H438.8612a30.3334,30.3334,0,0,0-14.9265,3.583l-82.88,48.1644,29.9441,17.2882h54l82.88-48.1644C516.1,361.0369,516.0559,353.2958,507.7878,348.5222Z" transform="translate(-186.7609 -124.6994)"/><path d="M552.4119,322.59c-4.7046-2.7161-10.8529-4.0778-17-4.0894v-.0022h-54V318.5c-6.1992-.0116-12.3969,1.35-17.1108,4.09-9.3879,5.4556-9.3381,14.3025.1112,19.7581,4.7045,2.7162,10.8528,4.0779,17,4.0894v.0013h.0478c.0207,0,.0412,0,.0618,0h53.89v-.0013c6.1993.0116,12.397-1.35,17.1109-4.09C561.911,336.892,561.8612,328.045,552.4119,322.59Z" transform="translate(-186.7609 -124.6994)"/><path d="M593.3271,392.9849c-13.09-7.5573-30.2847-11.3343-47.7406-11.4015l0-.0123H488.319v.0428c-17.7106.4023-35.4436,4.6135-49.1974,12.6064-28.17,16.3706-28.9784,42.3584-1.8052,58.0468,13.9027,8.0267,32.44,11.79,51.0026,11.3677v.01h48.6922q2.4585.05,4.9241,0h.3821l0-.01c17.71-.4025,35.4437-4.6138,49.1978-12.6068C619.6855,434.6575,620.4938,408.67,593.3271,392.9849Z" transform="translate(-186.7609 -124.6994)"/></g><path class="cls-1" d="M404.6529,237.218c0,.1779-.0136.3556-.0234.5333-.0083.1507-.0173.3013-.0323.4518-.0132.1328-.0316.2655-.05.3982-.0209.15-.0431.3-.0708.45-.0245.1332-.0534.2662-.0832.399-.0329.1467-.0676.2933-.107.4395-.0359.1332-.0756.2662-.1168.399-.0452.1456-.0926.2908-.1442.4358-.0462.13-.0958.26-.1473.3893q-.0909.2292-.1926.4571-.0852.1909-.1776.3808c-.0739.1513-.1523.302-.2334.4523-.0659.1222-.133.2441-.2036.3656-.1042.1789-.2158.3567-.33.5339-.07.1079-.1371.2161-.2106.3234-.1339.1955-.2782.3892-.4249.5824-.0643.0847-.1239.17-.1907.2546-.2437.3075-.5053.6112-.7816.9117-.0714.0776-.1485.1539-.2221.2311q-.3266.3423-.6811.6779c-.1089.1028-.218.2055-.3308.3072-.141.1271-.2862.2529-.4335.3782-.1362.116-.2738.2317-.4155.3462-.154.1245-.3128.2475-.4731.37-.1471.1125-.2951.2247-.4475.3355-.166.1206-.3373.24-.51.3584-.1585.1092-.3174.2182-.4813.3256-.1778.1166-.3613.2311-.5454.3455-.2308.1434-.4589.2877-.7.4276l-89.2609,51.8728-.1155,40.7581,89.2609-51.8728q.1858-.108.3678-.2174c.1143-.0687.22-.1406.3317-.21.1842-.1143.3676-.2289.5455-.3455.1637-.1073.3224-.2162.4808-.3252.1727-.119.3444-.2383.5109-.3594.1518-.11.2991-.222.4456-.3341.1608-.1229.32-.2462.4744-.371.1416-.1144.2791-.23.4153-.3461.1472-.1253.2925-.2511.4334-.3781.0584-.0526.1222-.1038.1795-.1567.0535-.0494.0986-.1008.1511-.1505q.356-.336.6825-.6792c.073-.0766.1495-.1522.22-.2293.2765-.3007.5382-.6046.7821-.9123.01-.0132.0232-.0259.0336-.0391.056-.0712.1029-.144.1572-.2155.1466-.1932.2909-.3868.4249-.5824.0735-.1073.1409-.2155.2106-.3234.1144-.1773.226-.3549.33-.5338.0285-.049.0626-.097.09-.146.0411-.0728.074-.1467.1134-.22.081-.15.1595-.301.2334-.4523.0619-.1266.1207-.2535.1775-.3808q.1019-.2279.1927-.4571c.0271-.0682.06-.1358.086-.2041.023-.0614.0393-.1234.0612-.185.0517-.1454.0994-.291.1446-.4371.041-.1321.08-.2643.1162-.3969.0395-.1468.0743-.2938.1073-.441.0178-.0793.042-.1581.0578-.2374.0107-.0534.0155-.1071.0253-.1607.0278-.1506.05-.3014.0711-.4524.0184-.1318.0366-.2634.05-.3953.0152-.1518.0241-.3035.0325-.4554.0049-.0887.0165-.1773.019-.2661s.004-.1765.0043-.2647v0Z" transform="translate(-186.7609 -124.6994)"/><polygon class="cls-1" points="90.122 193.941 60.171 176.649 60.056 217.407 90.006 234.699 137.068 261.87 137.183 221.112 90.122 193.941"/><path class="cls-1" d="M341.18,329.1416c-.0083.1518-.0174.3037-.0325.4553-.0132.1319-.0314.2636-.05.3953-.021.151-.0433.3019-.0711.4526-.0244.1327-.0533.2652-.083.3977-.0331.1474-.068.2946-.1075.4416-.0356.1323-.075.2642-.1159.3961-.0454.1462-.0931.2923-.1449.438-.0462.13-.0957.2593-.1471.3886q-.0909.2292-.1926.4572c-.0569.1272-.1157.2542-.1776.3808-.0739.1513-.1523.3019-.2334.4523-.0659.1221-.133.2441-.2037.3656-.1041.1791-.216.357-.3305.5344-.07.1076-.1367.2156-.21.3226-.1349.197-.28.3921-.428.5867-.0631.0831-.1216.167-.1871.25-.2441.308-.5062.6124-.7829.9133-.0708.077-.1473.1527-.22.2291q-.3276.3435-.6834.68c-.1082.1022-.2166.2042-.3288.3053-.1415.1276-.2873.254-.4351.38-.1362.1159-.2738.2315-.4153.3458-.1539.1244-.3125.2474-.4728.37-.1469.1123-.2946.2244-.4468.335-.1664.121-.338.24-.5107.3592-.1584.1091-.3171.218-.4808.3253-.1778.1166-.3613.2311-.5455.3455-.2307.1434-.4588.2877-.7.4275l-8.5,4.94-.1155,40.7581,8.5-4.9395q.1858-.108.3678-.2174c.1143-.0688.22-.1406.3317-.21.1841-.1144.3676-.2289.5455-.3455.1637-.1073.3224-.2163.4807-.3253.1728-.1189.3443-.2382.5107-.3592.1521-.1105.3-.2224.4464-.3346.1606-.1228.32-.246.4738-.3707.1413-.1141.2784-.2294.4143-.3451.1479-.1259.2939-.2523.4355-.38.058-.0523.1215-.1032.1784-.1557.0533-.0492.0983-.1.1506-.15q.3557-.336.6821-.6789c.0736-.077.1506-.1533.2219-.2308.2764-.3006.538-.6045.7819-.9122.01-.013.0229-.0256.0332-.0387.0558-.0709.1025-.1434.1566-.2147.1468-.1933.2912-.3871.4253-.5829.0735-.1073.141-.2155.2107-.3235.1146-.1776.2264-.3555.3306-.5347.0283-.0487.0623-.0965.09-.1454.0411-.0727.074-.1466.1134-.22.0809-.15.1593-.3.2331-.4516q.093-.19.1781-.3819.1017-.2279.1925-.4568c.0271-.0682.06-.1357.086-.204.023-.0613.0392-.1232.061-.1846.0519-.1456.0995-.2913.1448-.4375.041-.1324.0805-.2647.1163-.3975.0394-.1463.0741-.2928.107-.44.0179-.0795.0421-.1585.058-.2382.0108-.0535.0154-.1073.0253-.1609.0278-.1505.05-.3013.0711-.4522.0184-.1318.0366-.2635.05-.3954.0152-.1517.0242-.3034.0326-.4553.0049-.0887.0165-.1773.019-.2661s.004-.1766.0042-.2648l.1156-40.7581C341.2032,328.7877,341.19,328.9647,341.18,329.1416Z" transform="translate(-186.7609 -124.6994)"/><path class="cls-4" d="M395.7478,224.7781c11.818,6.8231,11.88,17.8817.1453,24.7013l-89.2609,51.8728,25.6663,14.8185c11.818,6.8231,11.88,17.8817.1454,24.7013l-8.5,4.94-47.0613-27.1709-29.95-17.2919,29.75-17.2885,110.51-64.2217Z" transform="translate(-186.7609 -124.6994)"/><g class="cls-5"><path class="cls-6" d="M505.5316,291.5375l-.1156,40.7581c-.01,3.5526-2.3446,7.1-7.0084,9.81-9.3879,5.4556-24.6613,5.4557-34.1106,0-4.755-2.7453-7.13-6.3494-7.12-9.9479l.1155-40.7582c-.01,3.5986,2.3647,7.2027,7.12,9.948,9.4493,5.4555,24.7227,5.4555,34.1105,0C503.1869,298.6374,505.5215,295.09,505.5316,291.5375Z" transform="translate(-186.7609 -124.6994)"/><g class="cls-7"><path class="cls-1" d="M505.5282,291.7494a8.2375,8.2375,0,0,1-.1582,1.3841,8.77,8.77,0,0,1-.39,1.358,9.7765,9.7765,0,0,1-.6425,1.3714,11.3735,11.3735,0,0,1-.9707,1.4412,13.8973,13.8973,0,0,1-1.4959,1.6084,18.6826,18.6826,0,0,1-3.0538,2.2611q-.1457.0877-.2943.1741a27.2686,27.2686,0,0,1-5.2847,2.3237,34.9386,34.9386,0,0,1-4.5663,1.1368c-1.0112.1823-2.0392.3252-3.0769.4285q-1.3293.1325-2.6753.1783-1.2339.0421-2.4708.0115-1.1916-.03-2.3762-.1272-1.1807-.0972-2.3453-.2621-1.21-.1714-2.3915-.4159-1.2806-.2654-2.5159-.6167c-1.0061-.2867-1.985-.6163-2.9288-.9889a26.2083,26.2083,0,0,1-3.4788-1.6679c-4.755-2.7453-7.13-6.3494-7.12-9.948l-.1155,40.7582c-.01,3.5985,2.3647,7.2026,7.12,9.9479a26.2031,26.2031,0,0,0,3.4789,1.6679c.9437.3726,1.9227.7022,2.9288.9889q1.233.3513,2.5159.6167,1.18.2445,2.3915.4159,1.163.1649,2.3452.2621t2.3762.1272q1.2351.0308,2.4708-.0115,1.3437-.0459,2.6754-.1783c1.0376-.1033,2.0657-.2461,3.0768-.4285a34.9361,34.9361,0,0,0,4.5664-1.1368,27.2618,27.2618,0,0,0,5.2847-2.3237q.1487-.0864.2942-.174a18.6894,18.6894,0,0,0,3.0539-2.2611,13.8962,13.8962,0,0,0,1.4958-1.6085,11.3629,11.3629,0,0,0,.9707-1.4412,9.7652,9.7652,0,0,0,.6425-1.3714,8.7705,8.7705,0,0,0,.39-1.358,8.2479,8.2479,0,0,0,.1582-1.3841q.003-.1059.0033-.2119l.1156-40.7581Q505.5313,291.6434,505.5282,291.7494Z" transform="translate(-186.7609 -124.6994)"/></g><path class="cls-8" d="M505.5316,291.5375l-.1156,40.7581c-.01,3.5526-2.3446,7.1-7.0084,9.81-9.3879,5.4556-24.6613,5.4557-34.1106,0-4.755-2.7453-7.13-6.3494-7.12-9.9479l.1155-40.7582c-.01,3.5986,2.3647,7.2027,7.12,9.948,9.4493,5.4555,24.7227,5.4555,34.1105,0C503.1869,298.6374,505.5215,295.09,505.5316,291.5375Z" transform="translate(-186.7609 -124.6994)"/></g><ellipse class="cls-4" cx="481.4123" cy="291.4687" rx="13.971" ry="24.12" transform="translate(1.8187 647.353) rotate(-89.8375)"/><path class="cls-1" d="M459.9643,316.8434c-.02.2219-.0353.4439-.076.6648-.0333.1809-.0882.36-.1354.54-.0552.2105-.1067.4214-.1809.63-.0615.1729-.143.3435-.2174.515-.0957.22-.1911.44-.3082.6576a9.4043,9.4043,0,0,1-.5392.893c-.033.0478-.07.0948-.1039.1424a10.9875,10.9875,0,0,1-.6932.8661c-.0477.0541-.0906.1092-.14.163-.2717.2969-.572.5872-.8891.873-.2026.1826-.4284.3588-.6495.5363-.1945.1561-.3814.3143-.59.4661-.2394.174-.5035.34-.7617.5081-.2649.1724-.5162.3493-.801.5149l-82.88,48.1644-.1155,40.7581,82.88-48.1644q.13-.0757.2579-.1525c.1939-.1166.3593-.2428.5437-.3628.2581-.1679.5216-.3335.7609-.5075.2092-.1521.3962-.31.591-.4668.2211-.1774.4464-.3532.6489-.5357.0408-.0368.0909-.0711.131-.1082.2714-.25.5217-.5063.7585-.7653.0488-.0533.0912-.1079.1386-.1616.1409-.16.2848-.319.4128-.4815.1-.1274.189-.2569.2813-.3857.034-.0475.0708-.0945.1039-.1423.1675-.2425.3251-.4867.4646-.7338.03-.0526.0464-.1068.0748-.16.1169-.2171.212-.4366.3075-.6564.056-.1287.1315-.2548.18-.3843.0164-.0435.0223-.0879.0378-.1315.0742-.2088.1253-.4191.1806-.63.0375-.1428.0939-.2841.1227-.4275.0075-.0378.006-.0761.013-.114.0406-.2206.0559-.4418.0758-.6632.013-.1448.0454-.2889.05-.4338q.0027-.0927.0029-.1854l.1156-40.7582C460.0161,316.4316,459.9828,316.6374,459.9643,316.8434Z" transform="translate(-186.7609 -124.6994)"/><polygon class="cls-1" points="184.238 248.279 184.123 289.037 154.179 271.749 154.294 230.991 184.238 248.279"/><path class="cls-4" d="M453.7878,307.5223c8.2681,4.7736,8.3117,12.5146.091,17.292l-82.88,48.1644-29.944-17.2882,82.88-48.1644C432.1555,302.7487,445.52,302.7486,453.7878,307.5223Z" transform="translate(-186.7609 -124.6994)"/><path class="cls-1" d="M512.7112,367.4524c-.77-.4445-1.5736-.857-2.3993-1.2471-.2721-.1285-.5582-.2411-.8358-.3637-.455-.201-.9014-.4114-1.37-.5965-.1331-.0525-.2725-.0973-.4067-.1485-.2022-.0773-.4078-.1494-.6124-.2237q-1.0392-.3776-2.1155-.7058c-.1717-.0523-.34-.1089-.5127-.1593-.08-.0234-.1576-.051-.2381-.074-.7684-.219-1.5533-.4126-2.3449-.5945-.1581-.0364-.3157-.0723-.4746-.1072-.1874-.0411-.3718-.0874-.56-.1265-.3539-.0733-.72-.1212-1.0773-.1873-.5657-.1045-1.13-.21-1.7033-.2961-.1521-.0229-.2992-.057-.4518-.0786-.3632-.0515-.7347-.0786-1.1006-.1229-.54-.0654-1.0785-.1317-1.6234-.1814-.1638-.015-.3242-.0411-.4884-.0546-.3585-.03-.722-.0351-1.0821-.0579-.5612-.0355-1.1211-.0709-1.6853-.09-.175-.0059-.348-.0235-.5233-.0279-.3276-.0082-.6568.0073-.985.0047-.6265-.0051-1.2514-.0061-1.8788.0089-.2052.0049-.41-.0041-.6152.0029q-.9656.0331-1.9294.0985c-.0293.002-.0582.0053-.0874.0073-.589.0405-1.1773.088-1.7638.1461-.3179.0316-.633.0765-.95.1132-.2562.03-.5115.0585-.7668.0915-.9317.1208-1.86.2562-2.7773.4222-.0156.0028-.0307.007-.0463.01q-1.6509.3-3.26.6988c-.298.0737-.5848.1667-.88.2454-.7672.2044-1.532.4125-2.2788.6508-.0675.0215-.1386.037-.206.0588-.79.2561-1.5646.5361-2.3278.83-.19.0735-.3747.154-.5634.23q-1.0107.406-1.9827.8575c-.2274.1055-.4546.21-.6786.32-.8.39-1.5863.796-2.34,1.2337q-.2249.1307-.4448.263c-.13.0781-.2491.16-.3764.2385-.2257.14-.45.28-.6678.4232-.19.1243-.374.25-.5576.3763-.2106.1449-.4189.29-.6215.4374-.177.1285-.3495.2584-.52.3887q-.2929.2235-.5747.45-.2463.1987-.4828.4-.27.229-.5277.461c-.0785.0706-.164.1394-.2409.21-.0563.052-.1037.1062-.1591.1585q-.4436.4185-.849.8457c-.069.0725-.143.144-.21.2169q-.49.5312-.92,1.0742c-.02.0256-.045.05-.0652.0761-.069.0875-.1267.177-.1934.265-.1608.2121-.3185.4245-.4662.6388-.09.13-.174.2613-.2588.3924-.1326.2047-.26.41-.3811.6164-.04.0684-.0876.1357-.1263.2042-.0409.0724-.0733.1457-.1126.2182-.0941.1733-.1831.347-.269.5212-.073.1483-.1444.2968-.2114.4458-.0785.1746-.1511.3495-.2214.5248-.0366.0913-.081.182-.1153.2735-.0228.0606-.0387.1218-.06.1824-.059.1645-.1119.3291-.1636.494-.049.1561-.0975.3121-.14.4686-.0453.1665-.084.3331-.1219.5-.023.1012-.0537.2019-.0739.3031-.011.0548-.0158.11-.026.1646-.031.167-.0551.3339-.0789.5009-.0223.1566-.0447.3132-.06.47-.0169.167-.0266.3338-.0361.5009-.0061.1069-.02.2139-.0231.3208q-.0044.1509-.0049.3019l-.1155,40.7581c.0006-.2074.0161-.4151.028-.6227.01-.1669.0192-.3339.036-.5009.0158-.1566.0383-.3131.0606-.47.0237-.1671.0478-.3341.0789-.501.029-.156.0644-.3118.1-.4677.0379-.1668.0766-.3335.1219-.5.0426-.1565.091-.3125.14-.4685.0518-.165.1047-.33.1636-.4941.0547-.1524.1151-.3044.176-.4563.07-.1748.1424-.3494.2207-.5235.0674-.15.139-.2988.2124-.4478q.1284-.2607.2683-.52c.0767-.1413.1568-.282.239-.4227.1207-.2064.2485-.4117.3811-.6164.0849-.131.1692-.2622.2589-.3925.1472-.2137.3047-.4255.4649-.637.0868-.1144.17-.23.26-.3433q.4317-.5424.92-1.0736c.0673-.073.1413-.1444.21-.217q.4058-.4273.8491-.8459.1962-.1851.3993-.3683.2582-.2325.5285-.4617.2369-.2012.4825-.4c.1873-.1511.3795-.3009.5747-.45.1708-.13.3434-.26.52-.3888.2026-.1472.411-.2926.6215-.4374.1836-.1261.368-.252.5576-.3762.2177-.1427.4421-.2832.6678-.4233.271-.1681.5387-.3373.8212-.5015.7531-.4377,1.5393-.8433,2.3394-1.2336.224-.1093.4517-.2144.6791-.32q.9714-.4509,1.9813-.8569c.189-.0759.374-.1568.5648-.23q1.242-.4786,2.5337-.889c.7458-.2379,1.51-.4457,2.276-.65.2962-.079.5841-.1723.883-.2463q1.6076-.3973,3.26-.6987c.9329-.17,1.8763-.3092,2.8237-.4321.255-.0331.5109-.0617.7666-.0914.9014-.1045,1.8056-.1969,2.7138-.2594.0292-.0019.0582-.0053.0873-.0072.8469-.057,1.696-.0812,2.5447-.1015.6268-.0149,1.2528-.014,1.8787-.0089.5033.0041,1.0066.0062,1.5084.0233.5637.0191,1.1244.0546,1.6853.09.5247.0333,1.0493.0649,1.57.1125.5446.05,1.0838.1161,1.6235.1814.5192.0628,1.0386.1241,1.5523.2015.5734.0864,1.1381.1917,1.7035.2962.5477.1011,1.0986.1956,1.6374.3137.1587.0349.3168.071.4747.1072q1.3122.3015,2.584.6688c.1719.05.3392.1065.51.1584q1.0779.3281,2.1178.7066c.204.0741.41.1463.6114.2233.6077.232,1.1946.4877,1.7792.7458.2769.1224.5626.2348.8339.363.8257.39,1.63.8027,2.4,1.2472,6.3578,3.6706,9.5131,8.52,9.4991,13.4339l.1156-40.7581C522.2242,375.9728,519.069,371.123,512.7112,367.4524Z" transform="translate(-186.7609 -124.6994)"/><g class="cls-5"><path class="cls-6" d="M559.1841,380.0714l-.1155,40.7581c-.03,10.7249-7.28,21.5952-21.6686,29.9567-28.17,16.3706-73.0325,16.9237-100.1992,1.239-13.295-7.6759-19.8916-17.8173-19.8625-28.0915l.1155-40.7581c-.0291,10.2742,6.5676,20.4156,19.8626,28.0915,27.1667,15.6847,72.0292,15.1316,100.1992-1.239C551.9036,401.6666,559.1537,390.7963,559.1841,380.0714Z" transform="translate(-186.7609 -124.6994)"/><g class="cls-9"><path class="cls-1" d="M559.174,380.7026a24.4088,24.4088,0,0,1-.4695,4.0918,26.2984,26.2984,0,0,1-1.1706,4.0733,29.6234,29.6234,0,0,1-1.9438,4.1472,34.86,34.86,0,0,1-2.9813,4.4263A43.0234,43.0234,0,0,1,548,402.3994a58.33,58.33,0,0,1-9.5547,7.0788q-.46.2767-.93.55a85.07,85.07,0,0,1-16.505,7.2585,107.3461,107.3461,0,0,1-13.9554,3.48c-3.096.56-6.2373.9973-9.4007,1.3113q-3.9381.3909-7.9088.5271-3.6411.1249-7.2768.0346-3.4567-.0863-6.8811-.3679-3.3873-.2792-6.7164-.75-3.4229-.4853-6.7565-1.1746-3.6012-.7459-7.0638-1.731c-2.7919-.7957-5.5044-1.7087-8.116-2.7391a72.3334,72.3334,0,0,1-9.6187-4.61c-13.295-7.6759-19.8917-17.8173-19.8625-28.0915l-.1156,40.7581c-.0291,10.2742,6.5675,20.4156,19.8625,28.0915a72.333,72.333,0,0,0,9.6187,4.61c2.6117,1.03,5.3241,1.9434,8.116,2.7392q3.4566.9851,7.0639,1.7309,3.3288.6894,6.7565,1.1746,3.3247.4715,6.7163.75,3.42.2817,6.8812.3678,3.63.09,7.2768-.0345,3.9639-.136,7.9088-.5271c3.1634-.314,6.3047-.7512,9.4007-1.3112a107.3625,107.3625,0,0,0,13.9554-3.48A85.0632,85.0632,0,0,0,537.4,450.7862q.47-.2731.93-.55a58.33,58.33,0,0,0,9.5547-7.0788,43.0322,43.0322,0,0,0,4.6086-4.9582,34.859,34.859,0,0,0,2.9812-4.4263,29.6181,29.6181,0,0,0,1.9438-4.1472,26.2874,26.2874,0,0,0,1.1706-4.0733,24.4194,24.4194,0,0,0,.47-4.0917q.0092-.3158.01-.6313l.1155-40.7581Q559.1832,380.3869,559.174,380.7026Z" transform="translate(-186.7609 -124.6994)"/></g><path class="cls-8" d="M559.1841,380.0714l-.1155,40.7581c-.03,10.7249-7.28,21.5952-21.6686,29.9567-28.17,16.3706-73.0325,16.9237-100.1992,1.239-13.295-7.6759-19.8916-17.8173-19.8625-28.0915l.1155-40.7581c-.0291,10.2742,6.5676,20.4156,19.8626,28.0915,27.1667,15.6847,72.0292,15.1316,100.1992-1.239C551.9036,401.6666,559.1537,390.7963,559.1841,380.0714Z" transform="translate(-186.7609 -124.6994)"/></g><path class="cls-4" d="M539.3271,351.9849c27.1667,15.6847,26.3585,41.6726-1.8115,58.0432s-73.0325,16.9237-100.1992,1.239c-27.1731-15.6884-26.3648-41.6762,1.8052-58.0468S512.154,336.2965,539.3271,351.9849ZM463.926,395.8033c12.9928,7.5014,34.45,7.2358,47.9232-.5937s13.8548-20.2558.862-27.7572c-12.9991-7.5051-34.45-7.2433-47.9233.5863s-13.861,20.26-.8619,27.7646" transform="translate(-186.7609 -124.6994)"/><path class="cls-10" d="M563.1818,379.6387c-.1538-12.0226-7.9026-23.0622-21.8546-31.1176-9.2048-5.3144-20.597-8.9935-33.1969-10.7471q.0324-.0669.0635-.1338c.1388-.2974.2609-.5847.3709-.87q.0237-.0568.0449-.113l.0322-.0857.013-.0416c.0925-.2558.1752-.51.25-.7649l.0453-.1552c.0683-.2447.1269-.4852.1789-.7265.0181-.07.0337-.1373.0471-.204l.0183-.0912.0119-.0828c.038-.2082.0688-.412.0959-.6165.02-.1448.0345-.26.0464-.375.02-.1979.0324-.3925.0428-.5873.0094-.1006.0166-.2026.02-.3042l.0011-.039,0-.039,0-.09c.0022-.0486.0035-.0966.0036-.1448l.1153-40.6167,0-.1388.0015-.4689-.01-.0322c-.1865-5.0586-3.4058-9.6336-9.1113-12.9271-5.1463-2.9705-11.9223-4.6064-19.08-4.6064-7.1618,0-13.924,1.6383-19.0409,4.613-5.6062,3.2569-8.78,7.7786-8.9857,12.7741l-.0115.0373-.0009.4531-.0324,11.3862a36.24,36.24,0,0,0-14.4139-2.82,34.1956,34.1956,0,0,0-16.9223,4.1055l-76.7795,44.6192.0587-20.0656.0014-.4518-.0081-.0266a14.4641,14.4641,0,0,0-.56-3.56l53.1515-30.8882.0289-.0168.0286-.0175.7236-.4424c.2233-.1381.4317-.2689.6347-.4007.2061-.1354.3927-.2636.5732-.3887.1851-.1266.3829-.2654.5785-.4064.19-.138.3664-.2716.5376-.4031.1771-.1341.37-.2848.555-.4344.1685-.1359.335-.2752.4968-.4135.158-.133.3285-.2814.5616-.4888l.1119-.0986.02-.0175.02-.0179c.07-.0637.1359-.1276.2456-.2391.2747-.2606.5382-.5235.7927-.7914l.2189-.2275.0246-.0256.0239-.026c.3556-.3877.6724-.7573.9971-1.1632.0758-.0968.1314-.1714.2417-.3258.1772-.234.35-.4684.5109-.7035l.018-.0262.0174-.0266.2276-.3477c.1551-.2416.2921-.46.441-.7129.0408-.0674.1017-.1688.114-.1907.0395-.0694.0834-.1514.1675-.3186.1011-.1879.1992-.3776.29-.564.0736-.1479.1548-.3234.2328-.4977.0831-.1862.1626-.3737.2584-.61.0423-.0976.083-.1963.1183-.2917l.0163-.0438.0149-.0443.0678-.2021c.0537-.1521.1165-.3429.1764-.5348.0571-.1836.1109-.3657.1595-.5465.05-.1841.0961-.3758.1617-.6584l.0107-.0462.0093-.0465.0718-.36c.0466-.25.0776-.4574.1065-.6648.0258-.1825.05-.3655.0687-.5521.0192-.1927.032-.3816.0493-.6546.01-.1176.0174-.2365.0207-.3553l.001-.0367,0-.0368.12-41.0478.0013-.4517-.008-.0262c-.18-6.0073-4.0349-11.4743-10.8985-15.4375l-8.5553-4.94a4,4,0,0,0-4.02.0124L245.2092,297.7238l-.0136.0044-.2914.1724-.0117.0069-.2061.1178-.0161.0138-.0059.0036-.0833.0729a3.9,3.9,0,0,0-.4859.4135,3.4931,3.4931,0,0,0-.3634.4315,3.2354,3.2354,0,0,0-.2608.3833,3.4983,3.4983,0,0,0-.2435.5144,3.2413,3.2413,0,0,0-.1548.44,3.3846,3.3846,0,0,0-.1.5327,3.3116,3.3116,0,0,0-.0409.5047l-.1152,40.7593a4.0127,4.0127,0,0,0,1.9958,3.4733l77.0159,44.4653a4.0012,4.0012,0,0,0,3.0283.4013l.279-.0742.1019-.0492a3.9188,3.9188,0,0,0,.5869-.2755l.0231-.0133.0229-.0137.0316-.019,8.4316-4.8991.0289-.0167.0286-.0175.7285-.4453c.2235-.1383.4316-.269.6344-.4006.2063-.1355.3928-.2636.5732-.3885.1861-.1268.3909-.2695.5932-.4165l.0559-.0411-.0371,13.0721a4.0124,4.0124,0,0,0,1.9957,3.4732l29.9481,17.2915a4.0012,4.0012,0,0,0,3.9956.0027l.2546-.1465.0106-.0093,40.28-23.4077-.0856,30.2815c-.0349,12.1966,7.7292,23.4075,21.8622,31.5674.7874.4543,1.6395.9217,2.5337,1.39.1953.1022.3935.2007.5918.2988l.3115.1554c.5824.2949,1.1663.5889,1.7646.8726.2.0945.4.1852.6.2756l.2829.1284c.6378.2929,1.2821.583,1.9379.8634.1585.0675.3148.1318.4711.1961l.2172.09.4021.169c.3435.1449.687.29,1.037.4276.133.0525.27.1017.408.15.0646.0228.1293.0453.1921.0694.763.2938,1.5705.5887,2.5435.9291.77.27,1.5941.544,2.5907.8609l.18.0571c.51.1618,1.02.3233,1.536.4762.1271.0378.2559.0794.3848.1208.216.0694.432.1382.6527.2012.35.1.7064.1918,1.0628.2837l.5527.1441.084.0223.05.0132c2.0575.5458,3.8892.9833,5.6,1.3375,2.2774.472,4.6348.8819,7.0061,1.2181,2.2715.3223,4.6095.5839,6.9487.7774,2.3656.1939,4.7579.3215,7.112.3793,1.0375.0259,2.097.039,3.1484.039,1.452,0,2.92-.0252,4.3646-.075,2.7225-.093,5.4705-.2761,8.1667-.5442,3.253-.3222,6.5222-.7778,9.7159-1.3543a112.7247,112.7247,0,0,0,12.9909-3.1588l.0508-.0155.0886-.027c.1653-.0511.3294-.1.4935-.1488.2862-.0853.5724-.1709.8534-.2619,2.76-.8942,5.5054-1.9228,8.1611-3.0573l.0921-.039.1475-.0627c1.081-.4655,2.0541-.9046,2.9769-1.3431l.0227-.0108.0485-.0239c.8122-.3866,1.6728-.8166,2.6123-1.3054.2-.1042.4015-.2093.6017-.3155,1.0173-.54,1.8491-1,2.6186-1.4474.3294-.1909.658-.3858.9835-.5818.17-.1022.3341-.2077.498-.3135.09-.0582.18-.1165.2721-.1736.5239-.324,1.0438-.6507,1.5508-.9826.3569-.2339.7048-.4694,1.0516-.7063.561-.3822,1.1137-.77,1.6533-1.1623.2682-.1955.53-.39.79-.5861.602-.4524,1.2053-.9242,1.791-1.4.1933-.1574.3563-.29.5169-.4243.649-.54,1.2987-1.1072,1.9289-1.6836.0585-.05.1074-.0927.1542-.136l.1106-.1055c5.6627-5.2485,9.436-11.05,11.2077-17.2385l.0233-.0768c.18-.6376.339-1.2873.4881-1.9978.0311-.1128.0587-.2249.081-.3363.0155-.0773.0279-.1528.0387-.2283.109-.579.1872-1.1325.2437-1.5543l.0233-.1689c.0329-.2364.0652-.4723.09-.7094.0448-.4385.0709-.872.0955-1.3059.0038-.0657.01-.1357.0165-.2057.0173-.1973.0329-.3946.0386-.5909.0072-.2467.0109-.492.0116-.7373l.1157-40.7562.0012-.4316Zm-4.5.6362.0015.0039-.1152,40.55q-.0008.3077-.01.6162c-.0029.11-.0137.2217-.0234.333l-.0264.34c-.02.3662-.0415.7324-.0786,1.0947-.0191.1865-.0454.3721-.0713.5576l-.0264.1895c-.06.4541-.1264.9062-.2119,1.3505l-.0415.2217c-.019.0723-.0376.1436-.0532.2188-.1187.5644-.253,1.1269-.4336,1.7607-1.542,5.3867-4.8892,10.4942-9.957,15.1914l-.209.19q-.865.7925-1.7915,1.5644l-.4737.3887q-.8071.6563-1.66,1.2978c-.24.1817-.4829.3614-.731.542q-.7528.548-1.5439,1.085c-.3233.2217-.6475.44-.9766.6562-.4746.3106-.9614.6172-1.456.9219l-.3453.2207c-.124.08-.2475.16-.3759.2373-.3047.1836-.6119.3653-.9244.5469-.8041.4668-1.63.9189-2.4677,1.3633l-.5679.2978c-.8169.4248-1.644.8408-2.5386,1.2676-.9233.4385-1.8662.8623-2.82,1.2725l-.2329.0986c-2.5347,1.083-5.1523,2.0635-7.7788,2.9141-.25.081-.5034.1562-.7573.2324l-.6661.2012a108.0106,108.0106,0,0,1-12.4677,3.0312c-3.0762.5557-6.2256.9941-9.3618,1.3057-2.5992.2578-5.2491.4345-7.8765.5244-2.4028.083-4.8521.0947-7.2476.0342-2.2685-.0557-4.5742-.1787-6.8515-.3653-2.252-.1855-4.502-.4375-6.688-.748-2.2769-.3223-4.54-.7158-6.7256-1.169-1.626-.3369-3.3784-.7558-5.3579-1.2812l-.7-.1826c-.3257-.083-.6509-.167-.9683-.2578-.1709-.0489-.3384-.1026-.5058-.1563-.1622-.0518-.3238-.1045-.49-.1533-.4941-.1465-.9819-.3008-1.47-.4561l-.16-.0508c-.8325-.2646-1.6548-.5341-2.4687-.82-.8116-.2832-1.6167-.5742-2.4151-.8818l-.2978-.1084c-.0894-.0312-.1787-.0625-.2642-.0967-.3247-.1279-.643-.2627-.9619-.3965l-1.05-.4384c-.6186-.2637-1.2266-.5381-1.83-.8145l-.3252-.1484c-.1689-.0762-.3379-.1524-.5058-.2325-.563-.2666-1.1123-.5439-1.6582-.8193l-.3633-.1816c-.1631-.0811-.3257-.1612-.4863-.2461-.8077-.4229-1.6006-.8555-2.3716-1.3-12.6773-7.3194-19.6426-17.1416-19.6123-27.6582l.1079-38.127-47.065,27.3516L341.44,396.16l.0718-25.2061-2.9585,4.54c-.1308.191-.27.378-.4282.5865l-.1265.1748c-.2739.3423-.53.64-.7749.9077l-.2431.2524q-.3157.3326-.6607.6577l-.2461.233c-.2065.1835-.353.31-.5.436-.1313.1123-.2666.2251-.4121.3423-.1436.1172-.2988.2363-.4561.3569q-.2167.1662-.4326.3252c-.1645.12-.3315.2358-.51.3569-.1509.1045-.3067.2119-.46.3125-.1758.1143-.3569.2281-.5313.336l-8.9428,5.2212-76.5122-44.1748.1133-40.1812,139.7626-81.22,8.3038,4.7939c5.5752,3.22,8.6494,7.4688,8.6567,11.8975l-.0029.062,0,.2666,0,0-.1191,40.79-.0127.1871c-.0137.2094-.022.3535-.0366.4975-.0127.1265-.03.25-.0474.377-.02.1425-.0405.2846-.0635.4091l-.0615.3135c-.05.2149-.084.3609-.1245.5093-.0337.125-.0708.25-.11.3755-.0439.1411-.09.2817-.1459.4414l-.1094.292c-.0786.1958-.1421.3472-.209.4966-.0532.1191-.1084.2392-.1733.3706-.0684.1411-.1436.2846-.2437.4707l-.15.2729c-.12.2036-.23.3784-.334.5415l-.21.3208c-.1289.1885-.2686.3755-.438.6l-.1172.1626c-.272.34-.5283.6367-.7744.9063l-.2383.2475c-.2124.2237-.4331.4429-.7075.7036l-.211.1983c-.1963.1748-.3393.3-.4931.4292-.13.1113-.2637.2231-.4029.3354-.1489.12-.3037.2412-.4682.3662-.14.107-.2827.2159-.4253.3194-.167.12-.3355.2383-.5122.3594-.1509.1044-.3067.2119-.4595.3125-.1763.1142-.3574.228-.5317.3359l-57.273,33.3047.6255,1.2583a10.3263,10.3263,0,0,1,1.13,4.5586l-.003.062.0005.2666,0,0-.0815,27.69L424.186,307.959c8.0655-4.69,21.2325-4.69,29.3516-.0039a17.5242,17.5242,0,0,1,1.8057,1.2109l2.3945,1.8037.0571-19.5771c.0132-3.5186,2.4131-6.8462,6.7578-9.37,9.2325-5.3672,24.3106-5.3677,33.6094,0,4.4248,2.5542,6.8648,5.9209,6.8721,9.3931l-.0039.0674,0,.3052-.1138,40.4624-.0195.4365c-.0064.1245-.0132.248-.0254.3682l-.0313.2441c-.0185.1431-.04.2852-.0727.4722l-.0308.1284c-.0347.166-.0747.3306-.1177.4849l-.0332.1142c-.0478.1616-.1.3228-.1782.5444l-.0293.0723c-.0767.2026-.1611.4028-.2612.6172-.0825.1763-.1709.3511-.2866.563l-.0459.082a11.47,11.47,0,0,1-1.606,2.1655c-.1675.18-.3408.3575-.523.5323l-2.3554,2.2646,3.2529.31c14.0054,1.3349,26.6348,5.0581,36.5234,10.7671,12.6182,7.2856,19.58,17.0591,19.607,27.5254l-.0034.0678ZM247.2764,301.7334l-.0225.0278.021-.0273Z" transform="translate(-186.7609 -124.6994)"/><path class="cls-10" d="M461.896,339.8486l-2.4419-2.0034-.0215,7.4976,1.8848-.4927c.8252-.2158,1.6538-.4248,2.4888-.6216l3.5937-.8476-3.1665-1.899A19.5315,19.5315,0,0,1,461.896,339.8486Z" transform="translate(-186.7609 -124.6994)"/></svg>