<?xml version="1.0" encoding="UTF-8" standalone="no"?>
<!-- Created with Inkscape (http://www.inkscape.org/) -->

<svg
   width="2048"
   height="2048"
   viewBox="0 0 541.86665 541.86668"
   version="1.1"
   id="svg1"
   inkscape:version="1.4.2 (f4327f4, 2025-05-13)"
   sodipodi:docname="logo.svg"
   xml:space="preserve"
   xmlns:inkscape="http://www.inkscape.org/namespaces/inkscape"
   xmlns:sodipodi="http://sodipodi.sourceforge.net/DTD/sodipodi-0.dtd"
   xmlns="http://www.w3.org/2000/svg"
   xmlns:svg="http://www.w3.org/2000/svg"><sodipodi:namedview
     id="namedview1"
     pagecolor="#000000"
     bordercolor="#000000"
     borderopacity="0.25"
     inkscape:showpageshadow="2"
     inkscape:pageopacity="0.0"
     inkscape:pagecheckerboard="0"
     inkscape:deskcolor="#d1d1d1"
     inkscape:document-units="mm"
     inkscape:zoom="0.16"
     inkscape:cx="740.625"
     inkscape:cy="-262.5"
     inkscape:window-width="1900"
     inkscape:window-height="990"
     inkscape:window-x="2"
     inkscape:window-y="49"
     inkscape:window-maximized="0"
     inkscape:current-layer="layer1" /><defs
     id="defs1"><inkscape:path-effect
       effect="bspline"
       id="path-effect57"
       is_visible="true"
       lpeversion="1.3"
       weight="33.333333"
       steps="2"
       helper_size="0"
       apply_no_weight="true"
       apply_with_weight="true"
       only_selected="false"
       uniform="false" /><inkscape:path-effect
       effect="bspline"
       id="path-effect56"
       is_visible="true"
       lpeversion="1.3"
       weight="33.333333"
       steps="2"
       helper_size="0"
       apply_no_weight="true"
       apply_with_weight="true"
       only_selected="false"
       uniform="false" /></defs><g
     inkscape:label="Layer 1"
     inkscape:groupmode="layer"
     id="layer1"
     style="display:inline"><circle
       style="display:inline;fill:none;fill-opacity:1;stroke:#ffffff;stroke-width:0.264583;stroke-linecap:square;stroke-dasharray:none;stroke-opacity:1"
       id="path8"
       cx="270.93332"
       cy="270.93332"
       r="270.93332"
       sodipodi:insensitive="true" /><path
       style="display:inline;fill:none;fill-opacity:1;stroke:#ffffff;stroke-width:0.264583;stroke-linecap:square;stroke-dasharray:none;stroke-opacity:1"
       d="M 270.9333,0 V 541.86663"
       id="path9"
       sodipodi:insensitive="true" /><path
       style="display:inline;fill:none;fill-opacity:1;stroke:#ffffff;stroke-width:0.264583;stroke-linecap:square;stroke-dasharray:none;stroke-opacity:1"
       d="M 0,270.9333 H 541.86663"
       id="path10"
       sodipodi:insensitive="true" /><path
       d="M 6.8266665e-6,270.93334 C 6.8266665e-6,67.733339 67.733339,6.8266665e-6 270.93334,6.8266665e-6 474.13333,6.8266665e-6 541.86667,67.733339 541.86667,270.93334 c 0,203.19999 -67.73334,270.93333 -270.93333,270.93333 C 67.733339,541.86667 6.8266665e-6,474.13333 6.8266665e-6,270.93334"
       id="path1-8"
       style="display:none;fill:#2ebc4f;stroke-width:0.264583" /><path
       d="M 233.69879,68.292293 V 398.09283 c 4.05483,-0.66143 8.04706,-1.51345 11.96671,-2.54609 8.87456,-2.33803 17.37829,-5.60336 25.40051,-9.6852 V 30.925065 L 245.6655,56.325582 Z"
       style="fill:#ffffff;fill-opacity:1;stroke-width:0.264582;stroke-opacity:0.7"
       id="path1" /><path
       d="m 192.62791,109.36317 v 288.80356 c 6.61618,1.05443 13.39833,1.60249 20.30522,1.60249 3.22486,0 6.4223,-0.11932 9.58856,-0.35399 V 79.469389 Z"
       style="fill:#ffffff;fill-opacity:1;stroke-width:0.264582;stroke-opacity:0.7"
       id="path2" /><path
       d="m 155.26068,146.7304 v 239.36472 c 7.12284,3.58817 14.6221,6.53384 22.42034,8.76019 V 124.31006 Z"
       style="fill:#ffffff;fill-opacity:1;stroke-width:0.264582;stroke-opacity:0.7"
       id="path3" /><path
       d="m 118.42313,184.9105 v 173.40233 c 4.60987,4.98953 9.60836,9.61507 14.9469,13.82758 V 168.86703 c -3.13614,3.23456 -6.09405,6.33401 -8.79172,9.2382 -2.28305,2.45783 -4.30763,4.69294 -6.15518,6.80527 z"
       style="fill:#ffffff;fill-opacity:1;stroke-width:0.264582;stroke-opacity:0.7"
       id="path4" /><path
       d="m 92.703774,225.09151 c -2.650444,6.73547 -5.513418,16.20293 -6.795451,22.31491 -1.67645,9.05132 -1.676384,15.98548 -1.676384,23.66316 0,16.16301 2.99978,31.64282 8.471835,45.91141 z"
       style="fill:#ffffff;fill-opacity:1;stroke-width:0.264582;stroke-opacity:0.7"
       id="path5" /><path
       d="m 419.88099,179.98564 c -23.30921,-23.30921 -55.48414,-37.75244 -90.94848,-37.75245 -20.79443,1e-5 -40.45794,4.96565 -57.86631,13.77258 v 29.26038 c 16.49089,-11.13828 36.3961,-17.63238 57.86594,-17.63238 57.2014,0 103.30072,46.09932 103.30072,103.30071 0,28.7592 -11.65272,54.71145 -30.5108,73.40965 a 12.620355,12.619806 45 0 1 0.62193,-0.53496 12.620355,12.619806 45 0 0 -0.71291,0.62523 l -53.81539,53.81539 -76.74984,76.74984 -1e-5,35.69593 148.41138,-148.41138 0.002,-0.002 a 12.620355,12.619806 45 0 0 0.003,-0.004 c 23.54261,-23.33949 38.15092,-55.67821 38.15092,-91.34405 -1e-5,-35.46434 -14.44324,-67.63927 -37.75245,-90.94848 z"
       style="baseline-shift:baseline;display:inline;overflow:visible;opacity:1;vector-effect:none;fill:#ffffff;fill-opacity:1;stroke-linecap:square;enable-background:accumulate;stop-color:#000000;stop-opacity:1"
       id="path128" /><path
       d="m 365.19812,234.66924 c -9.3145,-9.3145 -22.15641,-15.10192 -36.26561,-15.10192 -14.26327,0 -27.23156,5.91432 -36.56962,15.40814 a 12.625242,12.7 45 0 0 -0.15342,0.15059 l -21.14358,21.14358 v 35.70763 l 8.15261,-8.15261 30.84479,-30.84478 a 12.625242,12.7 45 0 0 0.64564,-0.73559 12.625242,12.7 45 0 1 -0.3457,0.42531 c 4.69121,-4.77054 11.24521,-7.70206 18.56929,-7.70206 14.49124,0 25.96659,11.47565 25.96659,25.96659 0,7.3238 -2.93134,13.87747 -7.70169,18.56819 -0.10268,0.10126 -0.20673,0.20107 -0.3108,0.30089 l -30.84369,30.84369 -10.5727,10.5727 -19.03847,19.03847 -9.83092,9.83093 -5.53483,5.53482 v 20.23773 15.46917 l 10.66991,-10.66991 20.01629,-20.01629 11.11935,-11.11935 24.57512,-24.57512 27.29339,-27.29339 a 12.624296,12.7 45 0 0 0.15096,-0.15379 c 9.49391,-9.33758 15.4085,-22.30519 15.4085,-36.56853 0,-14.10917 -5.78707,-26.95074 -15.10156,-36.26524 z"
       style="baseline-shift:baseline;display:inline;overflow:visible;opacity:1;vector-effect:none;fill:#ffffff;fill-opacity:1;stroke-width:0.999996;stroke-linecap:round;enable-background:accumulate;stop-color:#000000;stop-opacity:1"
       id="path130" /><path
       d="m 337.45382,262.40843 a 12.7,12.7 0 0 0 -17.96052,10e-4 l -15.58244,15.58245 -19.11337,19.11337 -9.7129,9.7129 -4.01875,4.01875 v 28.97098 l 3.6e-4,3.6e-4 -3.6e-4,6.94968 3.86856,-3.86856 18.10997,-18.10997 9.71363,-9.71363 19.11301,-19.113 15.58281,-15.58281 a 12.7,12.7 0 0 0 0,-17.96197 z"
       style="baseline-shift:baseline;display:inline;overflow:visible;opacity:1;vector-effect:none;fill:#ffffff;fill-opacity:1;stroke-linecap:round;enable-background:accumulate;stop-color:#000000;stop-opacity:1"
       id="path131" /><path
       d="m 392.539,207.32763 c -16.31168,-16.31169 -38.82011,-26.42664 -63.60686,-26.42665 -21.99565,1e-5 -42.19712,7.96582 -57.8663,21.1582 l 3.6e-4,2.30536 -3.6e-4,32.92358 11.65285,-11.65285 c 0.0503,-0.0513 0.10017,-0.10301 0.15096,-0.15379 11.70017,-11.85747 27.98386,-19.17987 46.0629,-19.17987 35.8462,0 64.63256,28.78635 64.63256,64.63255 0,18.07888 -7.32222,34.36239 -19.17951,46.06255 a 12.621288,12.7 45 0 0 -0.15415,0.15132 l -43.80543,43.80543 -12.68512,12.68512 -21.72421,21.72421 -24.95076,24.95076 v 35.69666 l 56.38494,-56.38494 29.10033,-29.10033 35.52858,-35.52858 3.6e-4,-3.6e-4 c 16.58047,-16.34639 26.88551,-39.04318 26.88551,-64.06152 0,-24.78673 -10.11496,-47.29517 -26.42665,-63.60685 z"
       style="baseline-shift:baseline;display:inline;overflow:visible;opacity:1;vector-effect:none;fill:#ffffff;fill-opacity:1;stroke-linecap:square;enable-background:accumulate;stop-color:#000000;stop-opacity:1"
       id="path129" /><g
       id="g119"
       style="display:none"
       transform="translate(14.1927,46.165724)"
       sodipodi:insensitive="true"><circle
         style="fill:none;fill-opacity:1;stroke:#ffffff;stroke-width:25.4002;stroke-linecap:square;stroke-dasharray:none;stroke-opacity:0.7"
         id="path40-2"
         cx="1305.7177"
         cy="205.42926"
         r="116" /><path
         style="fill:none;fill-opacity:0.7;stroke:#ffffff;stroke-width:25.4;stroke-linecap:round;stroke-dasharray:none;stroke-opacity:0.7;paint-order:normal"
         d="m 1387.2835,287.90964 -181.3054,181.3054"
         id="path101-3" /><path
         style="fill:none;fill-opacity:0.7;stroke:#ffffff;stroke-width:25.4;stroke-linecap:round;stroke-dasharray:none;stroke-opacity:0.7;paint-order:normal"
         d="M 1359.942,260.56814 1178.6366,441.87355"
         id="path103-2" /><path
         style="fill:none;fill-opacity:0.7;stroke:#ffffff;stroke-width:25.4;stroke-linecap:round;stroke-dasharray:none;stroke-opacity:0.7;paint-order:normal"
         d="m 1332.6005,233.22665 -181.3054,181.3054"
         id="path104-2" /><path
         style="fill:none;fill-opacity:0.7;stroke:#ffffff;stroke-width:25.4;stroke-linecap:round;stroke-dasharray:none;stroke-opacity:0.7;paint-order:normal"
         d="m 1305.259,205.88516 -181.3054,181.3054"
         id="path105-1" /><path
         style="fill:none;fill-opacity:0.7;stroke:#ffffff;stroke-width:25.4;stroke-linecap:round;stroke-dasharray:none;stroke-opacity:0.7;paint-order:normal"
         d="m 1277.9175,178.54367 -181.3054,181.3054"
         id="path106-6" /><path
         style="fill:none;fill-opacity:0.7;stroke:#ffffff;stroke-width:25.4;stroke-linecap:round;stroke-dasharray:none;stroke-opacity:0.7;paint-order:normal"
         d="M 1250.5761,151.20217 1069.2706,332.50758"
         id="path107-8" /><path
         style="fill:none;fill-opacity:0.7;stroke:#ffffff;stroke-width:25.4;stroke-linecap:round;stroke-dasharray:none;stroke-opacity:0.7;paint-order:normal"
         d="m 1223.2346,123.86068 -181.3054,181.3054"
         id="path108-5" /><circle
         style="fill:none;fill-opacity:1;stroke:#ffffff;stroke-width:25.4002;stroke-linecap:square;stroke-dasharray:none;stroke-opacity:0.7"
         id="circle109-7"
         cx="1305.7177"
         cy="205.42926"
         r="77.333" /><ellipse
         style="fill:none;fill-opacity:1;stroke:#ffffff;stroke-width:25.4002;stroke-linecap:square;stroke-dasharray:none;stroke-opacity:0.7"
         id="circle110-6"
         cx="1305.7177"
         cy="205.42926"
         rx="38.666332"
         ry="38.666" /><rect
         style="fill:#ffffff;fill-opacity:0.7;stroke:#ffffff;stroke-width:0.529167;stroke-linecap:butt;stroke-dasharray:none;stroke-opacity:1;paint-order:normal"
         id="rect131"
         width="270.93329"
         height="541.86664"
         x="0"
         y="0"
         transform="translate(976.78461,-65.50403)" /></g><g
       id="g120"
       style="display:none"
       sodipodi:insensitive="true"><path
         id="path63"
         style="baseline-shift:baseline;display:inline;overflow:visible;vector-effect:none;fill:#ffffff;fill-opacity:0.7;enable-background:accumulate;stop-color:#000000"
         d="m -317.19623,50.535416 -25.40052,25.400514 -92.14838,92.14839 c -10.51106,10.54913 -20.88476,20.96062 -28.9388,29.63126 -8.05404,8.67064 -12.89293,14.56811 -18.08107,22.08961 -6.37895,9.24789 -10.49269,17.31648 -12.61732,22.06222 -2.92888,6.64442 -6.49665,18.11767 -7.9716,25.14937 -1.67645,9.05132 -1.67639,15.98548 -1.67639,23.66315 0,70.92868 57.77252,128.69964 128.70119,128.69964 11.30531,0 22.27628,-1.46779 32.73237,-4.22248 8.87456,-2.33803 17.3783,-5.60337 25.40052,-9.6852 v -29.3057 -170.97355 -29.3057 -89.42969 z"
         sodipodi:nodetypes="cccssssssscccccc" /><rect
         style="fill:#ffffff;fill-opacity:0.7;stroke:none;stroke-width:0.264582;stroke-linecap:butt;stroke-dasharray:none;stroke-opacity:0.7;paint-order:normal"
         id="rect64"
         width="37.367001"
         height="368.84457"
         x="-354.56323"
         y="50.535412" /><rect
         style="fill:#ffffff;fill-opacity:0.7;stroke:none;stroke-width:0.264582;stroke-linecap:butt;stroke-dasharray:none;stroke-opacity:0.7;paint-order:normal"
         id="rect68"
         width="29.893999"
         height="368.84457"
         x="-392.45938"
         y="50.535412" /><rect
         style="fill:#ffffff;fill-opacity:0.7;stroke:none;stroke-width:0.264582;stroke-linecap:butt;stroke-dasharray:none;stroke-opacity:0.7;paint-order:normal"
         id="rect69"
         width="22.42"
         height="368.84457"
         x="-430.35556"
         y="50.535412" /><rect
         style="fill:#ffffff;fill-opacity:0.7;stroke:none;stroke-width:0.264582;stroke-linecap:butt;stroke-dasharray:none;stroke-opacity:0.7;paint-order:normal"
         id="rect70"
         width="14.947"
         height="368.84457"
         x="-468.78091"
         y="50.535412" /><rect
         style="fill:#ffffff;fill-opacity:0.7;stroke:none;stroke-width:0.264582;stroke-linecap:butt;stroke-dasharray:none;stroke-opacity:0.7;paint-order:normal"
         id="rect71"
         width="10.473"
         height="368.84457"
         x="-504.03125"
         y="50.535412" /></g></g></svg>
