<?xml version="1.0" encoding="UTF-8" standalone="no"?>
<!DOCTYPE svg PUBLIC "-//W3C//DTD SVG 1.1//EN" "http://www.w3.org/Graphics/SVG/1.1/DTD/svg11.dtd">
<svg width="100%" height="100%" viewBox="0 0 1200 900" version="1.1" xmlns="http://www.w3.org/2000/svg" xmlns:xlink="http://www.w3.org/1999/xlink" xml:space="preserve" xmlns:serif="http://www.serif.com/" style="fill-rule:evenodd;clip-rule:evenodd;stroke-linejoin:round;stroke-miterlimit:2;">
    <g transform="matrix(0.251438,0,0,0.251438,1065.89984,765.89984)">
        <g transform="matrix(1,0,0,1,-533.333333,-533.333333)">
            <g transform="matrix(4.166667,0,0,4.166667,0,0)">
                <path d="M256,60L256,196C256,229.115 229.115,256 196,256L60,256C26.885,256 0,229.115 0,196L0,60C0,26.885 26.885,0 60,0L196,0C229.115,0 256,26.885 256,60Z" style="fill:rgb(36,41,56);"/>
            </g>
            <g transform="matrix(4.166667,0,0,4.166667,0,0)">
                <path d="M105.552,137.283C106.327,123.403 113.091,111.174 123.296,102.505C133.304,93.991 146.775,88.787 161.473,88.787C176.156,88.787 189.627,93.991 199.642,102.505C209.84,111.174 216.604,123.403 217.386,137.268C218.16,151.53 212.455,164.779 202.447,174.6C192.242,184.59 177.727,190.859 161.473,190.859C145.219,190.859 130.675,184.59 120.477,174.6C110.461,164.779 104.771,151.53 105.552,137.283Z" style="fill:white;fill-rule:nonzero;"/>
            </g>
            <g transform="matrix(4.166667,0,0,4.166667,0,0)">
                <path d="M132.782,138.529C133.179,131.407 136.65,125.132 141.886,120.684C147.021,116.315 153.933,113.645 161.475,113.645C169.009,113.645 175.921,116.315 181.059,120.684C186.292,125.132 189.763,131.407 190.164,138.521C190.561,145.839 187.634,152.637 182.499,157.677C177.262,162.803 169.815,166.019 161.475,166.019C153.135,166.019 145.672,162.803 140.439,157.677C135.301,152.637 132.381,145.839 132.782,138.529Z" style="fill:rgb(38,87,135);fill-rule:nonzero;"/>
            </g>
            <g transform="matrix(4.166667,0,0,4.166667,0,0)">
                <path d="M87.09,152.92C87.139,155.707 88.023,161.123 89.35,165.353C92.139,174.305 96.869,182.587 103.451,189.886C110.206,197.389 118.523,203.415 128.13,207.693C138.228,212.186 149.169,214.476 160.534,214.457C171.88,214.442 182.821,212.107 192.919,207.58C202.526,203.26 210.836,197.208 217.579,189.702C224.157,182.372 228.88,174.075 231.676,165.123C233.082,160.599 233.97,156.008 234.326,151.402C234.675,146.864 234.529,142.318 233.888,137.776C232.636,128.925 229.588,120.62 224.895,113.05C220.604,106.094 215.071,100.004 208.493,94.878L208.508,94.866L142.122,43.649C142.062,43.603 142.014,43.554 141.95,43.513C137.594,40.154 130.27,40.165 125.48,43.532C120.637,46.937 120.083,52.567 124.393,56.119L124.374,56.138L152.063,78.762L67.67,78.852L67.558,78.852C60.583,78.86 53.877,83.458 52.55,89.27C51.185,95.19 55.923,100.101 63.176,100.128L63.165,100.154L105.94,100.071L29.61,158.942C29.513,159.014 29.408,159.089 29.318,159.161C22.118,164.701 19.79,173.913 24.325,179.743C28.928,185.672 38.715,185.683 45.99,179.777L87.649,145.519C87.649,145.519 87.041,150.144 87.09,152.92ZM194.137,168.407C185.554,177.194 173.537,182.177 160.534,182.203C147.512,182.226 135.495,177.288 126.912,168.516C122.718,164.241 119.636,159.323 117.736,154.084C115.873,148.935 115.15,143.47 115.63,137.956C116.083,132.567 117.68,127.426 120.229,122.775C122.733,118.202 126.181,114.071 130.439,110.576C138.783,103.744 149.405,100.045 160.515,100.03C171.636,100.015 182.251,103.679 190.603,110.489C194.853,113.969 198.298,118.086 200.802,122.65C203.362,127.298 204.947,132.42 205.419,137.825C205.892,143.331 205.168,148.788 203.305,153.941C201.401,159.195 198.331,164.113 194.137,168.407Z" style="fill:rgb(234,118,0);fill-rule:nonzero;"/>
            </g>
        </g>
    </g>
    <g transform="matrix(0.251438,0,0,0.251438,1065.89984,134.10016)">
        <g transform="matrix(1,0,0,1,-533.333333,-533.333333)">
            <g transform="matrix(4.166667,0,0,4.166667,0,0)">
                <path d="M256,60L256,196C256,229.115 229.115,256 196,256L60,256C26.885,256 0,229.115 0,196L0,60C0,26.885 26.885,0 60,0L196,0C229.115,0 256,26.885 256,60Z" style="fill:rgb(0,122,204);"/>
            </g>
            <g transform="matrix(4.166667,0,0,4.166667,0,0)">
                <path d="M56.611,128.849L56.53,139.333L89.85,139.333L89.85,234.012L113.419,234.012L113.419,139.333L146.739,139.333L146.739,129.052C146.739,123.363 146.618,118.609 146.455,118.487C146.333,118.325 126.056,118.243 101.472,118.284L56.733,118.406L56.611,128.849Z" style="fill:white;fill-rule:nonzero;"/>
            </g>
            <g transform="matrix(4.166667,0,0,4.166667,0,0)">
                <path d="M206.567,118.108C213.068,119.734 218.026,122.619 222.577,127.332C224.934,129.852 228.428,134.444 228.713,135.541C228.794,135.866 217.66,143.343 210.915,147.528C210.671,147.691 209.695,146.634 208.598,145.009C205.307,140.214 201.853,138.141 196.57,137.776C188.809,137.247 183.811,141.311 183.852,148.097C183.852,150.088 184.136,151.266 184.949,152.892C186.655,156.427 189.825,158.54 199.781,162.847C218.107,170.731 225.949,175.932 230.826,183.327C236.271,191.576 237.49,204.742 233.792,214.535C229.729,225.181 219.651,232.414 205.469,234.812C201.081,235.584 190.678,235.462 185.965,234.609C175.684,232.78 165.932,227.701 159.918,221.037C157.561,218.436 152.969,211.65 153.254,211.162C153.375,211 154.432,210.35 155.61,209.659C156.748,209.009 161.056,206.53 165.119,204.173L172.474,199.906L174.018,202.182C176.172,205.473 180.885,209.984 183.73,211.487C191.897,215.795 203.113,215.185 208.639,210.228C210.996,208.074 211.971,205.839 211.971,202.548C211.971,199.581 211.605,198.281 210.061,196.046C208.07,193.202 204.007,190.804 192.466,185.806C179.26,180.117 173.571,176.582 168.37,170.974C165.363,167.724 162.518,162.522 161.34,158.174C160.365,154.558 160.121,145.496 160.893,141.839C163.615,129.08 173.246,120.181 187.143,117.539C191.654,116.686 202.137,117.011 206.567,118.108Z" style="fill:white;fill-rule:nonzero;"/>
            </g>
        </g>
    </g>
    <g transform="matrix(0.251438,0,0,0.251438,134.10016,134.10016)">
        <g transform="matrix(1,0,0,1,-533.333333,-533.333333)">
            <g transform="matrix(4.166667,0,0,4.166667,0,0)">
                <path d="M256,60L256,196C256,229.115 229.115,256 196,256L60,256C26.885,256 0,229.115 0,196L0,60C0,26.885 26.885,0 60,0L196,0C229.115,0 256,26.885 256,60Z" style="fill:rgb(36,41,56);"/>
            </g>
            <g transform="matrix(4.166667,0,0,4.166667,0,0)">
                <path d="M225.613,125.628L217.306,120.479C217.236,119.669 217.157,118.861 217.069,118.056L224.222,111.393C224.949,110.715 225.275,109.712 225.078,108.742C224.886,107.768 224.203,106.965 223.275,106.623L214.134,103.215C213.905,102.424 213.664,101.638 213.419,100.849L219.115,92.936C219.696,92.132 219.815,91.085 219.437,90.172C219.058,89.258 218.231,88.603 217.261,88.442L207.628,86.875C207.253,86.144 206.863,85.425 206.469,84.717L210.52,75.82C210.934,74.915 210.848,73.87 210.296,73.037C209.745,72.211 208.813,71.729 207.817,71.767L198.033,72.107C197.528,71.475 197.013,70.849 196.489,70.233L198.741,60.712C198.968,59.744 198.683,58.724 197.979,58.023C197.28,57.323 196.266,57.033 195.291,57.261L185.773,59.513C185.156,58.991 184.529,58.474 183.895,57.969L184.238,48.182C184.275,47.192 183.792,46.251 182.968,45.702C182.141,45.149 181.094,45.066 180.185,45.477L171.31,49.528C170.593,49.134 169.874,48.744 169.153,48.367L167.582,38.732C167.424,37.755 166.768,36.926 165.852,36.555C164.938,36.175 163.885,36.297 163.09,36.877L155.18,42.575C154.399,42.327 153.616,42.088 152.833,41.861L149.426,32.718C149.079,31.787 148.277,31.103 147.307,30.91C146.334,30.719 145.339,31.043 144.658,31.766L137.996,38.921C137.192,38.832 136.382,38.751 135.574,38.685L130.426,30.355C129.906,29.513 128.984,29 127.985,29C126.986,29 126.074,29.513 125.563,30.355L120.415,38.685C119.605,38.751 118.795,38.832 117.993,38.921L111.332,31.766C110.657,31.043 109.654,30.719 108.682,30.91C107.708,31.105 106.905,31.787 106.562,32.718L103.156,41.861C102.365,42.088 101.582,42.329 100.81,42.575L92.9,36.877C92.095,36.296 91.047,36.173 90.137,36.555C89.223,36.934 88.566,37.763 88.407,38.732L86.836,48.367C86.11,48.744 85.39,49.132 84.679,49.528L75.803,45.477C74.901,45.064 73.854,45.149 73.022,45.702C72.197,46.251 71.714,47.192 71.752,48.182L72.092,57.969C71.46,58.474 70.834,58.991 70.215,59.513L60.696,57.261C59.729,57.035 58.709,57.323 58.009,58.023C57.305,58.726 57.019,59.739 57.246,60.712L59.479,70.233C58.959,70.85 58.444,71.475 57.939,72.107L48.155,71.767C47.169,71.738 46.225,72.211 45.676,73.037C45.123,73.858 45.04,74.911 45.451,75.82L49.501,84.717C49.107,85.43 48.717,86.15 48.341,86.875L38.708,88.442C37.73,88.601 36.905,89.256 36.532,90.172C36.153,91.09 36.276,92.141 36.854,92.936L42.55,100.849C42.302,101.63 42.062,102.416 41.834,103.215L32.694,106.623C31.767,106.969 31.084,107.772 30.89,108.742C30.698,109.716 31.021,110.711 31.746,111.393L38.899,118.056C38.81,118.861 38.731,119.671 38.663,120.479L30.355,125.628C29.513,126.149 29,127.068 29,128.07C29,129.071 29.513,129.982 30.355,130.494L38.663,135.642C38.731,136.453 38.81,137.261 38.899,138.065L31.746,144.729C31.021,145.404 30.698,146.408 30.89,147.378C31.084,148.354 31.767,149.154 32.694,149.499L41.834,152.906C42.062,153.698 42.302,154.483 42.55,155.273L36.854,163.185C36.275,163.992 36.151,165.039 36.532,165.949C36.912,166.867 37.739,167.522 38.727,167.679L48.359,169.246C48.736,169.977 49.122,170.696 49.52,171.405L45.47,180.283C45.057,181.185 45.142,182.232 45.695,183.065C46.248,183.892 47.188,184.376 48.174,184.335L57.939,183.993C58.448,184.629 58.961,185.251 59.483,185.871L57.25,195.393C57.023,196.358 57.309,197.362 58.013,198.062C58.711,198.768 59.727,199.05 60.7,198.823L70.219,196.589C70.838,197.115 71.464,197.626 72.096,198.13L71.755,207.917C71.718,208.907 72.2,209.848 73.025,210.396C73.847,210.947 74.899,211.031 75.807,210.618L84.683,206.567C85.398,206.965 86.117,207.35 86.84,207.728L88.411,217.363C88.57,218.343 89.225,219.172 90.141,219.559C91.054,219.939 92.109,219.816 92.903,219.239L100.814,213.541C101.595,213.789 102.38,214.032 103.179,214.258L106.585,223.401C106.932,224.329 107.734,225.017 108.705,225.206C109.677,225.402 110.673,225.077 111.355,224.35L118.016,217.194C118.82,217.287 119.63,217.365 120.438,217.437L125.586,225.747C126.104,226.586 127.025,227.103 128.008,227.103C128.99,227.103 129.92,226.588 130.449,225.747L135.597,217.437C136.407,217.365 137.215,217.287 138.019,217.194L144.68,224.35C145.356,225.077 146.359,225.402 147.33,225.206C148.304,225.015 149.106,224.329 149.449,223.401L152.856,214.258C153.646,214.032 154.432,213.789 155.221,213.541L163.131,219.239C163.935,219.816 164.984,219.939 165.894,219.559C166.81,219.182 167.465,218.351 167.624,217.363L169.195,207.728C169.922,207.35 170.64,206.959 171.352,206.567L180.228,210.618C181.13,211.031 182.176,210.947 183.009,210.396C183.834,209.844 184.315,208.907 184.279,207.917L183.939,198.13C184.571,197.624 185.197,197.115 185.814,196.589L195.332,198.823C196.3,199.05 197.319,198.768 198.02,198.062C198.724,197.36 199.01,196.35 198.783,195.393L196.549,185.871C197.072,185.251 197.587,184.629 198.09,183.993L207.874,184.335C208.859,184.376 209.804,183.892 210.352,183.065C210.906,182.24 210.991,181.189 210.576,180.283L206.527,171.405C206.922,170.688 207.31,169.967 207.685,169.246L217.317,167.679C218.297,167.522 219.122,166.867 219.493,165.949C219.871,165.035 219.753,163.981 219.171,163.185L213.475,155.273C213.722,154.49 213.961,153.705 214.191,152.906L223.331,149.499C224.261,149.15 224.945,148.35 225.135,147.378C225.331,146.406 225.006,145.41 224.28,144.729L217.126,138.065C217.213,137.261 217.292,136.451 217.362,135.642L225.671,130.494C226.512,129.974 227.025,129.052 227.025,128.07C227.025,127.088 226.514,126.158 225.672,125.628L225.613,125.628ZM169.976,194.723C166.797,194.038 164.791,190.899 165.472,187.719C166.151,184.538 169.276,182.513 172.455,183.194C175.635,183.874 177.659,187.018 176.978,190.198C176.297,193.379 173.174,195.404 169.995,194.723L169.976,194.723ZM167.156,175.604C164.261,174.983 161.404,176.826 160.798,179.73L157.846,193.511C148.743,197.638 138.543,199.947 127.945,199.947C117.045,199.947 106.751,197.543 97.477,193.227L94.525,179.446C93.904,176.55 91.062,174.694 88.167,175.319L75.998,177.931C73.746,175.604 71.646,173.123 69.716,170.511L128.948,170.511C129.619,170.511 130.065,170.39 130.065,169.78L130.065,148.768C130.065,148.159 129.619,148.038 128.948,148.038L111.633,148.038L111.633,134.768L130.348,134.768C132.057,134.768 139.489,135.256 141.855,144.762C142.598,147.677 144.239,157.181 145.356,160.228C146.469,163.636 150.995,170.451 155.821,170.451L185.343,170.451C185.677,170.451 186.035,170.412 186.412,170.345C184.368,173.127 182.116,175.758 179.713,178.22L167.26,175.55L167.156,175.604ZM85.215,194.439C82.035,195.124 78.913,193.099 78.231,189.914C77.552,186.734 79.571,183.591 82.754,182.91C85.934,182.23 89.056,184.256 89.737,187.435C90.417,190.615 88.396,193.757 85.215,194.439ZM62.695,103.385C64.012,106.357 62.672,109.841 59.705,111.165C56.733,112.485 53.27,111.143 51.946,108.175C50.621,105.206 51.968,101.719 54.936,100.394C57.907,99.077 61.37,100.417 62.695,103.385ZM55.787,119.741L68.466,114.1C71.173,112.898 72.403,109.727 71.192,107.02L68.58,101.114L78.837,101.114L78.837,147.303L58.21,147.303C56.414,140.98 55.447,134.317 55.447,127.427C55.447,124.795 55.589,122.202 55.861,119.646L55.787,119.741ZM111.425,115.254L111.425,101.625L135.837,101.625C137.099,101.625 144.75,103.084 144.75,108.8C144.75,113.55 138.883,115.254 134.058,115.254L111.349,115.254L111.425,115.254ZM200.179,127.521C200.179,129.331 200.113,131.118 199.981,132.898L192.543,132.898C191.799,132.898 191.5,133.386 191.5,134.114L191.5,137.521C191.5,145.548 186.978,147.309 183.003,147.744C179.219,148.17 175.037,146.162 174.526,143.844C172.292,131.294 168.583,128.624 162.716,123.968C170.003,119.349 177.572,112.515 177.572,103.334C177.572,93.472 170.817,87.263 166.218,84.215C159.746,79.956 152.592,79.104 150.662,79.104L73.83,79.104C84.257,67.481 98.431,59.227 114.327,56.199L123.393,65.701C125.436,67.841 128.823,67.935 130.981,65.876L141.124,56.183C162.319,60.14 180.297,73.353 190.705,91.582L183.761,107.256C182.563,109.964 183.785,113.144 186.485,114.337L199.846,120.28C200.077,122.646 200.198,125.051 200.198,127.473L200.179,127.521ZM123.347,48.205C125.694,45.952 129.422,46.047 131.654,48.396C133.888,50.743 133.812,54.472 131.459,56.725C129.113,58.978 125.385,58.883 123.152,56.532C120.919,54.184 120.995,50.455 123.347,48.203L123.347,48.205ZM192.231,103.67C193.546,100.697 197.018,99.353 199.99,100.678C202.961,101.996 204.305,105.486 202.98,108.459C201.665,111.431 198.192,112.775 195.221,111.449C192.25,110.132 190.906,106.641 192.231,103.67Z" style="fill:rgb(206,66,43);fill-rule:nonzero;"/>
            </g>
        </g>
    </g>
    <g transform="matrix(0.251438,0,0,0.251438,444.700053,134.10016)">
        <g transform="matrix(1,0,0,1,-533.333333,-533.333333)">
            <g transform="matrix(4.166667,0,0,4.166667,0,0)">
                <path d="M256,60L256,196C256,229.115 229.115,256 196,256L60,256C26.885,256 0,229.115 0,196L0,60C0,26.885 26.885,0 60,0L196,0C229.115,0 256,26.885 256,60Z" style="fill:rgb(149,60,173);"/>
            </g>
            <g transform="matrix(4.166667,0,0,4.166667,0,0)">
                <path d="M195.436,100.668L195.436,114.142L208.91,114.142L208.91,100.668L215.647,100.668L215.647,114.142L229.12,114.142L229.12,120.879L215.647,120.879L215.647,134.352L229.12,134.352L229.12,141.089L215.647,141.089L215.647,154.563L208.91,154.563L208.91,141.089L195.436,141.089L195.436,154.563L188.699,154.563L188.699,141.089L175.226,141.089L175.226,134.352L188.699,134.352L188.699,120.879L175.226,120.879L175.226,114.142L188.699,114.142L188.699,100.668L195.436,100.668ZM208.91,120.879L195.436,120.879L195.436,134.352L208.91,134.352L208.91,120.879Z" style="fill:white;fill-rule:nonzero;"/>
            </g>
            <g transform="matrix(4.166667,0,0,4.166667,0,0)">
                <path d="M122.001,33C157.144,33 187.828,52.086 204.262,80.456L204.102,80.183L162.753,103.991C154.607,90.198 139.672,80.889 122.54,80.698L122.001,80.695C95.875,80.695 74.695,101.874 74.695,127.999C74.695,136.543 76.972,144.552 80.933,151.469C89.088,165.704 104.416,175.306 122.001,175.306C139.693,175.306 155.109,165.582 163.222,151.195L163.025,151.54L204.311,175.458C188.057,203.588 157.794,222.615 123.059,222.994L122.001,223C86.746,223 55.975,203.796 39.582,175.276C31.579,161.353 27,145.212 27,127.999C27,75.533 69.532,33 122.001,33Z" style="fill:white;fill-rule:nonzero;"/>
            </g>
        </g>
    </g>
    <g transform="matrix(0.251438,0,0,0.251438,755.299947,134.10016)">
        <g transform="matrix(1,0,0,1,-533.333333,-533.333333)">
            <g transform="matrix(4.166667,0,0,4.166667,0,0)">
                <path d="M256,60L256,196C256,229.115 229.115,256 196,256L60,256C26.885,256 0,229.115 0,196L0,60C0,26.885 26.885,0 60,0L196,0C229.115,0 256,26.885 256,60Z" style="fill:rgb(0,89,156);"/>
            </g>
            <g transform="matrix(4.166667,0,0,4.166667,0,0)">
                <path d="M110.759,210.517C65.125,210.517 28,173.392 28,127.759C28,82.125 65.125,45 110.759,45C140.204,45 167.667,60.846 182.427,86.353L146.611,107.079C139.224,94.311 125.485,86.379 110.759,86.379C87.942,86.379 69.379,104.942 69.379,127.759C69.379,150.575 87.942,169.138 110.759,169.138C125.486,169.138 139.225,161.206 146.613,148.436L182.429,169.161C167.669,194.671 140.206,210.517 110.759,210.517Z" style="fill:white;fill-rule:nonzero;"/>
            </g>
            <g transform="matrix(4.166667,0,0,4.166667,0,0)">
                <path d="M193.517,123.161L184.321,123.161L184.321,113.965L175.127,113.965L175.127,123.161L165.931,123.161L165.931,132.356L175.127,132.356L175.127,141.552L184.321,141.552L184.321,132.356L193.517,132.356L193.517,123.161Z" style="fill:white;fill-rule:nonzero;"/>
            </g>
            <g transform="matrix(4.166667,0,0,4.166667,0,0)">
                <path d="M228,123.161L218.804,123.161L218.804,113.965L209.61,113.965L209.61,123.161L200.414,123.161L200.414,132.356L209.61,132.356L209.61,141.552L218.804,141.552L218.804,132.356L228,132.356L228,123.161Z" style="fill:white;fill-rule:nonzero;"/>
            </g>
        </g>
    </g>
    <g transform="matrix(0.251438,0,0,0.251438,755.299947,450)">
        <g transform="matrix(1,0,0,1,-533.333333,-533.333333)">
            <g transform="matrix(4.166667,0,0,4.166667,0,0)">
                <path d="M256,60L256,196C256,229.115 229.115,256 196,256L60,256C26.885,256 0,229.115 0,196L0,60C0,26.885 26.885,0 60,0L196,0C229.115,0 256,26.885 256,60Z" style="fill:rgb(35,150,237);"/>
            </g>
            <g transform="matrix(4.166667,0,0,4.166667,0,0)">
                <path d="M141.187,122.123L161.904,122.123L161.904,103.379L141.187,103.379L141.187,122.123ZM116.525,122.123L137.241,122.123L137.241,103.379L116.525,103.379L116.525,122.123ZM92.355,122.123L113.072,122.123L113.072,103.379L92.355,103.379L92.355,122.123ZM68.186,122.123L88.409,122.123L88.409,103.379L68.186,103.379L68.186,122.123ZM43.523,122.123L64.24,122.123L64.24,103.379L43.523,103.379L43.523,122.123ZM68.186,99.433L88.409,99.433L88.409,80.69L68.186,80.69L68.186,99.433ZM92.355,99.433L113.072,99.433L113.072,80.69L92.355,80.69L92.355,99.433ZM116.525,99.433L137.241,99.433L137.241,80.69L116.525,80.69L116.525,99.433ZM116.525,76.744L137.241,76.744L137.241,58L116.525,58L116.525,76.744ZM228,113.738C228,113.738 219.121,105.352 200.871,108.312C198.898,94.007 183.607,85.622 183.607,85.622C183.607,85.622 169.303,102.886 179.661,122.123C176.702,123.603 171.769,125.576 164.37,125.576L28.726,125.576C26.259,134.948 26.259,197.097 94.328,197.097C143.16,197.097 179.661,174.408 196.925,132.974C222.574,134.948 228,113.738 228,113.738Z" style="fill:white;fill-rule:nonzero;"/>
            </g>
        </g>
    </g>
    <g transform="matrix(0.251438,0,0,0.251438,134.10016,450)">
        <g transform="matrix(1,0,0,1,-533.333333,-533.333333)">
            <g transform="matrix(4.166667,0,0,4.166667,0,0)">
                <clipPath id="_clip1">
                    <path d="M256,60L256,196C256,229.115 229.115,256 196,256L60,256C26.885,256 0,229.115 0,196L0,60C0,26.885 26.885,0 60,0L196,0C229.115,0 256,26.885 256,60Z"/>
                </clipPath>
                <g clip-path="url(#_clip1)">
                    <path d="M157.281,0L157.281,1.38C157.281,17.594 144.138,30.733 127.929,30.733C111.716,30.733 98.577,17.59 98.577,1.38L98.577,0L0,0L0,256L256,256L256,0L157.281,0Z" style="fill:rgb(101,79,240);fill-rule:nonzero;"/>
                </g>
                <path d="M59.466,137.96L76.432,137.96L88.015,199.647L88.224,199.647L102.145,137.96L118.015,137.96L130.589,200.404L130.836,200.404L144.038,137.96L160.678,137.96L139.056,228.601L122.219,228.601L109.749,166.914L109.423,166.914L96.075,228.601L78.925,228.601L59.466,137.96ZM179.806,137.96L206.553,137.96L233.115,228.601L215.613,228.601L209.836,208.431L179.367,208.431L174.908,228.601L157.862,228.601L179.806,137.96ZM189.988,160.301L182.588,193.556L205.62,193.556L197.124,160.301L189.988,160.301Z" style="fill:white;fill-rule:nonzero;"/>
            </g>
        </g>
    </g>
    <g transform="matrix(0.251438,0,0,0.251438,444.700053,450)">
        <g transform="matrix(1,0,0,1,-533.333333,-533.333333)">
            <g transform="matrix(4.166667,0,0,4.166667,0,0)">
                <path d="M256,60L256,196C256,229.115 229.115,256 196,256L60,256C26.885,256 0,229.115 0,196L0,60C0,26.885 26.885,0 60,0L196,0C229.115,0 256,26.885 256,60Z" style="fill:rgb(81,43,212);"/>
            </g>
            <g transform="matrix(4.166667,0,0,4.166667,0,0)">
                <path d="M24.052,168.943C21.816,168.943 19.914,168.212 18.349,166.749C16.783,165.248 16,163.466 16,161.402C16,159.301 16.783,157.5 18.349,155.999C19.914,154.499 21.816,153.748 24.052,153.748C26.326,153.748 28.246,154.499 29.812,155.999C31.415,157.5 32.216,159.301 32.216,161.402C32.216,163.466 31.415,165.248 29.812,166.749C28.246,168.212 26.326,168.943 24.052,168.943Z" style="fill:white;fill-rule:nonzero;"/>
            </g>
            <g transform="matrix(4.166667,0,0,4.166667,0,0)">
                <path d="M113.467,167.705L98.928,167.705L60.625,108.387C59.656,106.886 58.854,105.328 58.221,103.715L57.885,103.715C58.183,105.441 58.332,109.137 58.332,114.802L58.332,167.705L45.471,167.705L45.471,87L60.96,87L97.978,144.912C99.544,147.314 100.55,148.964 100.998,149.865L101.221,149.865C100.849,147.726 100.662,144.106 100.662,139.002L100.662,87L113.467,87L113.467,167.705Z" style="fill:white;fill-rule:nonzero;"/>
            </g>
            <g transform="matrix(4.166667,0,0,4.166667,0,0)">
                <path d="M176.098,167.705L131.084,167.705L131.084,87L174.309,87L174.309,98.369L144.393,98.369L144.393,121.218L171.961,121.218L171.961,132.53L144.393,132.53L144.393,156.393L176.098,156.393L176.098,167.705Z" style="fill:white;fill-rule:nonzero;"/>
            </g>
            <g transform="matrix(4.166667,0,0,4.166667,0,0)">
                <path d="M240.071,98.369L217.033,98.369L217.033,167.705L203.724,167.705L203.724,98.369L180.742,98.369L180.742,87L240.071,87L240.071,98.369Z" style="fill:white;fill-rule:nonzero;"/>
            </g>
        </g>
    </g>
    <g transform="matrix(0.251438,0,0,0.251438,1065.89984,450)">
        <g transform="matrix(1,0,0,1,-533.333333,-533.333333)">
            <g transform="matrix(4.166667,0,0,4.166667,0,0)">
                <path d="M256,60L256,196C256,229.115 229.115,256 196,256L60,256C26.885,256 0,229.115 0,196L0,60C0,26.885 26.885,0 60,0L196,0C229.115,0 256,26.885 256,60Z" style="fill:rgb(36,41,56);"/>
            </g>
            <g transform="matrix(4.166667,0,0,4.166667,0,0)">
                <path d="M84.745,111.961C84.745,114.395 85.008,116.368 85.468,117.816C85.995,119.263 86.653,120.842 87.574,122.553C87.903,123.079 88.034,123.605 88.034,124.066C88.034,124.724 87.639,125.382 86.784,126.039L82.639,128.803C82.047,129.197 81.455,129.395 80.929,129.395C80.271,129.395 79.613,129.066 78.955,128.474C78.034,127.487 77.245,126.434 76.587,125.382C75.929,124.263 75.271,123.013 74.547,121.5C69.416,127.553 62.968,130.579 55.205,130.579C49.679,130.579 45.271,129 42.047,125.842C38.824,122.684 37.179,118.474 37.179,113.211C37.179,107.618 39.153,103.079 43.166,99.658C47.179,96.237 52.508,94.526 59.284,94.526C61.521,94.526 63.824,94.724 66.258,95.053C68.692,95.382 71.192,95.908 73.824,96.5L73.824,91.697C73.824,86.697 72.771,83.21 70.732,81.171C68.626,79.132 65.074,78.145 60.008,78.145C57.705,78.145 55.337,78.408 52.903,79C50.468,79.592 48.1,80.316 45.797,81.237C44.745,81.697 43.955,81.96 43.495,82.092C43.034,82.224 42.705,82.29 42.442,82.29C41.521,82.29 41.06,81.632 41.06,80.25L41.06,77.026C41.06,75.974 41.192,75.184 41.521,74.724C41.85,74.263 42.442,73.803 43.363,73.342C45.666,72.158 48.429,71.171 51.653,70.382C54.876,69.526 58.297,69.132 61.916,69.132C69.745,69.132 75.468,70.908 79.153,74.46C82.771,78.013 84.613,83.408 84.613,90.645L84.613,111.961L84.745,111.961ZM58.034,121.961C60.205,121.961 62.442,121.566 64.811,120.776C67.179,119.987 69.284,118.539 71.061,116.566C72.113,115.316 72.903,113.934 73.297,112.355C73.692,110.776 73.955,108.868 73.955,106.632L73.955,103.868C72.047,103.408 70.008,103.013 67.903,102.75C65.797,102.487 63.758,102.355 61.718,102.355C57.31,102.355 54.087,103.211 51.916,104.987C49.745,106.763 48.692,109.263 48.692,112.553C48.692,115.645 49.482,117.947 51.126,119.526C52.705,121.171 55.008,121.961 58.034,121.961ZM110.863,129.066C109.679,129.066 108.889,128.868 108.363,128.408C107.837,128.013 107.376,127.092 106.982,125.842L91.521,74.987C91.126,73.671 90.929,72.816 90.929,72.355C90.929,71.303 91.455,70.71 92.508,70.71L98.955,70.71C100.205,70.71 101.061,70.908 101.521,71.368C102.047,71.763 102.442,72.684 102.837,73.934L113.889,117.487L124.153,73.934C124.482,72.618 124.876,71.763 125.403,71.368C125.929,70.974 126.85,70.71 128.034,70.71L133.297,70.71C134.547,70.71 135.403,70.908 135.929,71.368C136.455,71.763 136.916,72.684 137.179,73.934L147.574,118.013L158.955,73.934C159.35,72.618 159.811,71.763 160.271,71.368C160.797,70.974 161.653,70.71 162.837,70.71L168.955,70.71C170.008,70.71 170.6,71.237 170.6,72.355C170.6,72.684 170.534,73.013 170.468,73.408C170.403,73.803 170.271,74.329 170.008,75.053L154.153,125.908C153.758,127.224 153.297,128.079 152.771,128.474C152.245,128.868 151.389,129.132 150.271,129.132L144.613,129.132C143.363,129.132 142.508,128.934 141.982,128.474C141.455,128.013 140.995,127.158 140.732,125.842L130.534,83.408L120.403,125.776C120.074,127.092 119.679,127.947 119.153,128.408C118.626,128.868 117.705,129.066 116.521,129.066L110.863,129.066ZM195.403,130.842C191.982,130.842 188.561,130.447 185.271,129.658C181.982,128.868 179.416,128.013 177.705,127.026C176.653,126.434 175.929,125.776 175.666,125.184C175.403,124.592 175.271,123.934 175.271,123.342L175.271,119.987C175.271,118.605 175.797,117.947 176.784,117.947C177.179,117.947 177.574,118.013 177.968,118.145C178.363,118.276 178.955,118.539 179.613,118.803C181.85,119.789 184.284,120.579 186.85,121.105C189.482,121.632 192.047,121.895 194.679,121.895C198.824,121.895 202.047,121.171 204.284,119.724C206.521,118.276 207.705,116.171 207.705,113.474C207.705,111.632 207.113,110.118 205.929,108.868C204.745,107.618 202.508,106.5 199.284,105.447L189.745,102.487C184.942,100.974 181.389,98.737 179.218,95.776C177.047,92.882 175.929,89.658 175.929,86.237C175.929,83.474 176.521,81.04 177.705,78.934C178.889,76.829 180.468,74.987 182.442,73.54C184.416,72.026 186.653,70.908 189.284,70.118C191.916,69.329 194.679,69 197.574,69C199.021,69 200.534,69.066 201.982,69.263C203.495,69.46 204.876,69.724 206.258,69.987C207.574,70.316 208.824,70.645 210.008,71.04C211.192,71.434 212.113,71.829 212.771,72.224C213.692,72.75 214.35,73.276 214.745,73.868C215.139,74.395 215.337,75.118 215.337,76.04L215.337,79.132C215.337,80.513 214.811,81.237 213.824,81.237C213.297,81.237 212.442,80.974 211.324,80.447C207.574,78.737 203.363,77.882 198.692,77.882C194.942,77.882 191.982,78.474 189.942,79.724C187.903,80.974 186.85,82.882 186.85,85.579C186.85,87.421 187.508,89 188.824,90.25C190.139,91.5 192.574,92.75 196.061,93.868L205.403,96.829C210.139,98.342 213.561,100.447 215.6,103.145C217.639,105.842 218.626,108.934 218.626,112.355C218.626,115.184 218.034,117.75 216.916,119.987C215.732,122.224 214.153,124.197 212.113,125.776C210.074,127.421 207.639,128.605 204.811,129.461C201.85,130.382 198.758,130.842 195.403,130.842Z" style="fill:white;fill-rule:nonzero;"/>
            </g>
            <g transform="matrix(4.166667,0,0,4.166667,0,0)">
                <path d="M207.837,162.816C186.192,178.803 154.745,187.29 127.705,187.29C89.811,187.29 55.666,173.276 29.876,149.987C27.837,148.145 29.679,145.645 32.113,147.092C60.008,163.276 94.416,173.079 130.008,173.079C154.021,173.079 180.403,168.079 204.679,157.816C208.297,156.171 211.389,160.184 207.837,162.816Z" style="fill:rgb(255,153,0);"/>
            </g>
            <g transform="matrix(4.166667,0,0,4.166667,0,0)">
                <path d="M216.85,152.553C214.087,149 198.561,150.842 191.521,151.697C189.416,151.961 189.087,150.118 190.995,148.737C203.363,140.053 223.692,142.553 226.061,145.447C228.429,148.408 225.403,168.737 213.824,178.474C212.047,179.987 210.337,179.197 211.126,177.224C213.758,170.711 219.613,156.039 216.85,152.553Z" style="fill:rgb(255,153,0);"/>
            </g>
        </g>
    </g>
    <g transform="matrix(0.251438,0,0,0.251438,444.700053,765.89984)">
        <g transform="matrix(1,0,0,1,-533.333333,-533.333333)">
            <g transform="matrix(4.166667,0,0,4.166667,0,0)">
                <path d="M256,60L256,196C256,229.115 229.115,256 196,256L60,256C26.885,256 0,229.115 0,196L0,60C0,26.885 26.885,0 60,0L196,0C229.115,0 256,26.885 256,60Z" style="fill:rgb(0,0,91);"/>
            </g>
            <g transform="matrix(4.166667,0,0,4.166667,0,0)">
                <path d="M54,182.68L54,72.813C54,72.067 54.32,71.64 55.067,71.64C56.88,71.64 58.587,71.64 61.04,71.533C63.6,71.427 66.267,71.427 69.147,71.32C72.027,71.213 75.12,71.213 78.427,71.107C81.733,71 84.933,71 88.133,71C96.88,71 104.133,72.067 110.107,74.307C115.44,76.12 120.347,79.107 124.4,83.053C127.813,86.467 130.48,90.627 132.187,95.213C133.787,99.693 134.64,104.28 134.64,109.08C134.64,118.253 132.507,125.827 128.24,131.8C123.973,137.773 118,142.253 111.067,144.813C103.813,147.48 95.813,148.44 87.067,148.44C84.507,148.44 82.8,148.44 81.733,148.333C80.667,148.227 79.173,148.227 77.147,148.227L77.147,182.467C77.253,183.213 76.72,183.853 75.973,183.96L55.28,183.96C54.427,183.96 54,183.533 54,182.573L54,182.68ZM77.253,92.333L77.253,128.173C78.747,128.28 80.133,128.387 81.413,128.387L87.067,128.387C91.227,128.387 95.387,127.747 99.333,126.467C102.747,125.507 105.733,123.48 108.08,120.813C110.32,118.147 111.387,114.52 111.387,109.827C111.493,106.52 110.64,103.213 108.933,100.333C107.12,97.56 104.56,95.427 101.467,94.253C97.52,92.653 93.253,92.013 88.88,92.12C86.107,92.12 83.653,92.12 81.627,92.227C79.493,92.12 78,92.227 77.253,92.333Z" style="fill:rgb(153,153,255);fill-rule:nonzero;"/>
            </g>
            <g transform="matrix(4.166667,0,0,4.166667,0,0)">
                <path d="M150,98.627L168.667,98.627C169.734,98.627 170.587,99.373 170.907,100.333C171.227,101.187 171.44,102.04 171.547,103C171.76,104.067 171.974,105.24 172.08,106.307C172.187,107.48 172.294,108.76 172.294,110.147C175.494,106.413 179.334,103.32 183.707,100.973C188.614,98.2 194.267,96.813 199.92,96.813C200.667,96.707 201.307,97.24 201.414,97.987L201.414,119.213C201.414,120.067 200.88,120.387 199.707,120.387C195.867,120.28 191.92,120.6 188.187,121.453C185.094,122.093 182.107,123.053 179.227,124.333C177.2,125.293 175.28,126.573 173.787,128.28L173.787,182.68C173.787,183.747 173.36,184.173 172.4,184.173L151.387,184.173C150.534,184.28 149.787,183.747 149.68,182.893L149.68,123.373C149.68,120.813 149.68,118.147 149.574,115.373C149.467,112.6 149.467,109.827 149.36,107.053C149.36,104.6 149.147,102.253 148.934,99.8C148.827,99.267 149.147,98.733 149.68,98.627C149.68,98.52 149.894,98.52 150,98.627Z" style="fill:rgb(153,153,255);fill-rule:nonzero;"/>
            </g>
        </g>
    </g>
    <g transform="matrix(0.251438,0,0,0.251438,134.10016,765.89984)">
        <g transform="matrix(1,0,0,1,-533.333333,-533.333333)">
            <g transform="matrix(4.166667,0,0,4.166667,0,0)">
                <path d="M256,60C256,26.885 229.115,0 196,0L60,0C26.885,0 0,26.885 0,60L0,196C0,229.115 26.885,256 60,256L196,256C229.115,256 256,229.115 256,196L256,60Z" style="fill:rgb(51,0,0);"/>
            </g>
            <g transform="matrix(4.166667,0,0,4.166667,0,0)">
                <path d="M123.733,152.333L84.053,152.333L75.946,177.4C75.733,178.36 74.88,179 73.92,178.893L53.866,178.893C52.693,178.893 52.373,178.253 52.693,176.973L87.04,78.094C87.36,77.027 87.68,75.853 88.106,74.573C88.533,72.334 88.746,69.987 88.746,67.64C88.64,67.107 89.066,66.573 89.6,66.467L117.226,66.467C118.08,66.467 118.506,66.787 118.613,67.32L157.546,177.187C157.866,178.36 157.546,178.893 156.48,178.893L134.186,178.893C133.44,179 132.693,178.467 132.48,177.72L123.733,152.333ZM90.24,130.68L117.333,130.68C116.693,128.44 115.84,125.773 114.88,123C113.92,120.12 112.96,117.027 112,113.827C110.933,110.52 109.973,107.32 108.906,104.013C107.84,100.707 106.88,97.614 106.026,94.52C105.173,91.534 104.426,88.76 103.68,86.2L103.466,86.2C102.506,90.787 101.333,95.374 99.84,99.96C98.24,105.08 96.64,110.413 94.933,115.747C93.44,121.187 91.84,126.2 90.24,130.68Z" style="fill:rgb(255,154,0);fill-rule:nonzero;"/>
            </g>
            <g transform="matrix(4.166667,0,0,4.166667,0,0)">
                <path d="M181.333,85.133C177.813,85.24 174.4,83.853 171.84,81.4C169.387,78.733 168.107,75.213 168.213,71.587C168.107,67.96 169.493,64.547 172.053,62.093C174.613,59.64 178.027,58.36 181.547,58.36C185.707,58.36 188.907,59.64 191.253,62.093C193.6,64.653 194.88,68.067 194.773,71.587C194.88,75.213 193.6,78.733 191.04,81.4C188.587,83.96 184.96,85.347 181.333,85.133ZM169.387,177.72L169.387,95.587C169.387,94.52 169.813,94.093 170.773,94.093L191.893,94.093C192.853,94.093 193.28,94.627 193.28,95.587L193.28,177.72C193.28,178.893 192.853,179.427 191.893,179.427L170.987,179.427C169.92,179.427 169.387,178.787 169.387,177.72Z" style="fill:rgb(255,154,0);fill-rule:nonzero;"/>
            </g>
        </g>
    </g>
    <g transform="matrix(0.251438,0,0,0.251438,755.299947,765.89984)">
        <g transform="matrix(1,0,0,1,-533.333333,-533.333333)">
            <path d="M1066.667,250L1066.667,816.667C1066.667,954.645 954.645,1066.667 816.667,1066.667L250,1066.667C112.021,1066.667 0,954.645 0,816.667L0,250C0,112.021 112.021,0 250,0L816.667,0C954.645,0 1066.667,112.021 1066.667,250Z" style="fill:rgb(167,241,117);"/>
            <g transform="matrix(4.166667,0,0,4.166667,0,0)">
                <path d="M208,72.743C208,46.367 177.478,35 138.516,35C114.816,35 88.017,39.391 63.13,47.248L63.13,98.825C99.807,72.086 140.556,60.64 166.804,60.64C183.309,60.64 194.508,65.25 194.508,73.508C194.508,107.536 47,102.144 47,175.67C47,203.853 66.361,220 93.599,220C134.798,220 165.961,179.923 189.274,131.07L193.998,132.769C181.719,162.623 156.31,195.356 151.361,216.399L204.402,216.399L204.402,107.535L192.151,107.535C174.369,146.212 148.312,181.852 121.256,181.852C108.905,181.852 101.047,174.351 101.047,164.838C101.047,124.128 208,115.977 208,72.743Z" style="fill-rule:nonzero;"/>
            </g>
        </g>
    </g>
</svg>
