<?xml version="1.0" encoding="UTF-8" standalone="no"?>
<svg
   id="Layer_1"
   data-name="Layer 1"
   viewBox="0 0 108 108"
   version="1.1"
   width="108"
   height="108"
   xmlns="http://www.w3.org/2000/svg"
   xmlns:svg="http://www.w3.org/2000/svg">
  <defs
     id="defs1">
    <style
       id="style1">
      .cls-1 {
        fill: #0372e2;
        stroke-width: 0px;
      }
    </style>
  </defs>
  <g
     id="g15">
    <path
       class="cls-1"
       d="m 28.98,78.18 v 23.33 C 11.76,92.58 0,74.59 0,53.85 0,46.25 1.58,39.02 4.44,32.47 H 26.38 C 21.76,38.36 19,45.78 19,53.85 c 0,9.48 3.81,18.07 9.98,24.33 z"
       id="path14" />
    <path
       class="cls-1"
       d="m 107.31,53.85 c 0,29.64 -24.02,53.66 -53.65,53.66 -3.23,0 -6.4,-0.29 -9.48,-0.84 V 87.2 c 3.01,0.85 6.19,1.31 9.48,1.31 19.13,0 34.65,-15.52 34.65,-34.66 0,-9.52 -3.84,-18.15 -10.06,-24.41 V 6.14 c 17.26,8.92 29.06,26.94 29.06,47.71 z"
       id="path15" />
    <polygon
       class="cls-1"
       points="44.18,60.5 63.22,60.5 63.22,0.49 23.64,0.49 23.64,19.47 44.18,19.47 "
       id="polygon15" />
  </g>
</svg>
